<svg width="386" height="364" viewBox="0 0 386 364" fill="none" xmlns="http://www.w3.org/2000/svg">
<g clip-path="url(#clip0_4_20)">
<rect width="386" height="364" fill="white"/>
<g clip-path="url(#clip1_4_20)">
<path d="M643 -145H-257V455H643V-145Z" fill="#6600FF"/>
<g filter="url(#filter0_f_4_20)">
<path d="M-129 537C68.1656 537 228 377.166 228 180C228 -17.1656 68.1656 -177 -129 -177C-326.166 -177 -486 -17.1656 -486 180C-486 377.166 -326.166 537 -129 537Z" fill="#00CC99"/>
<path d="M536 461C733.166 461 893 301.166 893 104C893 -93.1656 733.166 -253 536 -253C338.834 -253 179 -93.1656 179 104C179 301.166 338.834 461 536 461Z" fill="#6600FF"/>
<path d="M615 271C812.166 271 972 111.166 972 -86C972 -283.166 812.166 -443 615 -443C417.834 -443 258 -283.166 258 -86C258 111.166 417.834 271 615 271Z" fill="#00CC99"/>
<path d="M-6 740C191.166 740 351 580.166 351 383C351 185.834 191.166 26 -6 26C-203.166 26 -363 185.834 -363 383C-363 580.166 -203.166 740 -6 740Z" fill="#00CC99"/>
<path d="M256 318C453.166 318 613 158.166 613 -39C613 -236.166 453.166 -396 256 -396C58.8344 -396 -101 -236.166 -101 -39C-101 158.166 58.8344 318 256 318Z" fill="#6600FF"/>
<path d="M154 581C351.166 581 511 421.166 511 224C511 26.8344 351.166 -133 154 -133C-43.1656 -133 -203 26.8344 -203 224C-203 421.166 -43.1656 581 154 581Z" fill="#00CC99"/>
</g>
</g>
<path d="M319.5 182.5C319.5 252.64 262.64 309.5 192.5 309.5C122.36 309.5 65.5 252.64 65.5 182.5C65.5 112.36 122.36 55.5 192.5 55.5C262.64 55.5 319.5 112.36 319.5 182.5Z" stroke="white"/>
<path d="M130.551 238.072C129.719 238.072 128.967 237.888 128.295 237.52C127.631 237.152 127.107 236.644 126.723 235.996C126.347 235.34 126.159 234.608 126.159 233.8C126.159 232.992 126.347 232.264 126.723 231.616C127.107 230.96 127.635 230.448 128.307 230.08C128.979 229.712 129.731 229.528 130.563 229.528C131.187 229.528 131.763 229.632 132.291 229.84C132.819 230.048 133.267 230.352 133.635 230.752L133.071 231.316C132.415 230.652 131.587 230.32 130.587 230.32C129.923 230.32 129.319 230.472 128.775 230.776C128.231 231.08 127.803 231.496 127.491 232.024C127.187 232.552 127.035 233.144 127.035 233.8C127.035 234.456 127.187 235.048 127.491 235.576C127.803 236.104 128.231 236.52 128.775 236.824C129.319 237.128 129.923 237.28 130.587 237.28C131.595 237.28 132.423 236.944 133.071 236.272L133.635 236.836C133.267 237.236 132.815 237.544 132.279 237.76C131.751 237.968 131.175 238.072 130.551 238.072ZM137.462 231.64C138.286 231.64 138.918 231.848 139.358 232.264C139.798 232.672 140.018 233.28 140.018 234.088V238H139.202V237.016C139.01 237.344 138.726 237.6 138.35 237.784C137.982 237.968 137.542 238.06 137.03 238.06C136.326 238.06 135.766 237.892 135.35 237.556C134.934 237.22 134.726 236.776 134.726 236.224C134.726 235.688 134.918 235.256 135.302 234.928C135.694 234.6 136.314 234.436 137.162 234.436H139.166V234.052C139.166 233.508 139.014 233.096 138.71 232.816C138.406 232.528 137.962 232.384 137.378 232.384C136.978 232.384 136.594 232.452 136.226 232.588C135.858 232.716 135.542 232.896 135.278 233.128L134.894 232.492C135.214 232.22 135.598 232.012 136.046 231.868C136.494 231.716 136.966 231.64 137.462 231.64ZM137.162 237.388C137.642 237.388 138.054 237.28 138.398 237.064C138.742 236.84 138.998 236.52 139.166 236.104V235.072H137.186C136.106 235.072 135.566 235.448 135.566 236.2C135.566 236.568 135.706 236.86 135.986 237.076C136.266 237.284 136.658 237.388 137.162 237.388ZM142.333 229.096H143.185V238H142.333V229.096ZM150.007 237.292V238H144.871V237.436L148.843 232.408H144.943V231.688H149.935V232.252L145.963 237.292H150.007ZM153.892 231.64C154.716 231.64 155.348 231.848 155.788 232.264C156.228 232.672 156.448 233.28 156.448 234.088V238H155.632V237.016C155.44 237.344 155.156 237.6 154.78 237.784C154.412 237.968 153.972 238.06 153.46 238.06C152.756 238.06 152.196 237.892 151.78 237.556C151.364 237.22 151.156 236.776 151.156 236.224C151.156 235.688 151.348 235.256 151.732 234.928C152.124 234.6 152.744 234.436 153.592 234.436H155.596V234.052C155.596 233.508 155.444 233.096 155.14 232.816C154.836 232.528 154.392 232.384 153.808 232.384C153.408 232.384 153.024 232.452 152.656 232.588C152.288 232.716 151.972 232.896 151.708 233.128L151.324 232.492C151.644 232.22 152.028 232.012 152.476 231.868C152.924 231.716 153.396 231.64 153.892 231.64ZM153.592 237.388C154.072 237.388 154.484 237.28 154.828 237.064C155.172 236.84 155.428 236.52 155.596 236.104V235.072H153.616C152.536 235.072 151.996 235.448 151.996 236.2C151.996 236.568 152.136 236.86 152.416 237.076C152.696 237.284 153.088 237.388 153.592 237.388ZM164.546 229.096V238H163.73V236.752C163.474 237.176 163.134 237.5 162.71 237.724C162.294 237.948 161.822 238.06 161.294 238.06C160.702 238.06 160.166 237.924 159.686 237.652C159.206 237.38 158.83 237 158.558 236.512C158.286 236.024 158.15 235.468 158.15 234.844C158.15 234.22 158.286 233.664 158.558 233.176C158.83 232.688 159.206 232.312 159.686 232.048C160.166 231.776 160.702 231.64 161.294 231.64C161.806 231.64 162.266 231.748 162.674 231.964C163.09 232.172 163.43 232.48 163.694 232.888V229.096H164.546ZM161.366 237.304C161.806 237.304 162.202 237.204 162.554 237.004C162.914 236.796 163.194 236.504 163.394 236.128C163.602 235.752 163.706 235.324 163.706 234.844C163.706 234.364 163.602 233.936 163.394 233.56C163.194 233.184 162.914 232.896 162.554 232.696C162.202 232.488 161.806 232.384 161.366 232.384C160.918 232.384 160.514 232.488 160.154 232.696C159.802 232.896 159.522 233.184 159.314 233.56C159.114 233.936 159.014 234.364 159.014 234.844C159.014 235.324 159.114 235.752 159.314 236.128C159.522 236.504 159.802 236.796 160.154 237.004C160.514 237.204 160.918 237.304 161.366 237.304ZM169.498 238.06C168.89 238.06 168.342 237.924 167.854 237.652C167.366 237.372 166.982 236.988 166.702 236.5C166.422 236.012 166.282 235.46 166.282 234.844C166.282 234.228 166.422 233.676 166.702 233.188C166.982 232.7 167.366 232.32 167.854 232.048C168.342 231.776 168.89 231.64 169.498 231.64C170.106 231.64 170.654 231.776 171.142 232.048C171.63 232.32 172.01 232.7 172.282 233.188C172.562 233.676 172.702 234.228 172.702 234.844C172.702 235.46 172.562 236.012 172.282 236.5C172.01 236.988 171.63 237.372 171.142 237.652C170.654 237.924 170.106 238.06 169.498 238.06ZM169.498 237.304C169.946 237.304 170.346 237.204 170.698 237.004C171.058 236.796 171.338 236.504 171.538 236.128C171.738 235.752 171.838 235.324 171.838 234.844C171.838 234.364 171.738 233.936 171.538 233.56C171.338 233.184 171.058 232.896 170.698 232.696C170.346 232.488 169.946 232.384 169.498 232.384C169.05 232.384 168.646 232.488 168.286 232.696C167.934 232.896 167.654 233.184 167.446 233.56C167.246 233.936 167.146 234.364 167.146 234.844C167.146 235.324 167.246 235.752 167.446 236.128C167.654 236.504 167.934 236.796 168.286 237.004C168.646 237.204 169.05 237.304 169.498 237.304ZM180.835 231.64C181.427 231.64 181.963 231.776 182.443 232.048C182.923 232.312 183.299 232.688 183.571 233.176C183.843 233.664 183.979 234.22 183.979 234.844C183.979 235.476 183.843 236.036 183.571 236.524C183.299 237.012 182.923 237.392 182.443 237.664C181.971 237.928 181.435 238.06 180.835 238.06C180.323 238.06 179.859 237.956 179.443 237.748C179.035 237.532 178.699 237.22 178.435 236.812V240.328H177.583V231.688H178.399V232.936C178.655 232.52 178.991 232.2 179.407 231.976C179.831 231.752 180.307 231.64 180.835 231.64ZM180.775 237.304C181.215 237.304 181.615 237.204 181.975 237.004C182.335 236.796 182.615 236.504 182.815 236.128C183.023 235.752 183.127 235.324 183.127 234.844C183.127 234.364 183.023 233.94 182.815 233.572C182.615 233.196 182.335 232.904 181.975 232.696C181.615 232.488 181.215 232.384 180.775 232.384C180.327 232.384 179.923 232.488 179.563 232.696C179.211 232.904 178.931 233.196 178.723 233.572C178.523 233.94 178.423 234.364 178.423 234.844C178.423 235.324 178.523 235.752 178.723 236.128C178.931 236.504 179.211 236.796 179.563 237.004C179.923 237.204 180.327 237.304 180.775 237.304ZM191.211 235.108H185.931C185.979 235.764 186.231 236.296 186.687 236.704C187.143 237.104 187.719 237.304 188.415 237.304C188.807 237.304 189.167 237.236 189.495 237.1C189.823 236.956 190.107 236.748 190.347 236.476L190.827 237.028C190.547 237.364 190.195 237.62 189.771 237.796C189.355 237.972 188.895 238.06 188.391 238.06C187.743 238.06 187.167 237.924 186.663 237.652C186.167 237.372 185.779 236.988 185.499 236.5C185.219 236.012 185.079 235.46 185.079 234.844C185.079 234.228 185.211 233.676 185.475 233.188C185.747 232.7 186.115 232.32 186.579 232.048C187.051 231.776 187.579 231.64 188.163 231.64C188.747 231.64 189.271 231.776 189.735 232.048C190.199 232.32 190.563 232.7 190.827 233.188C191.091 233.668 191.223 234.22 191.223 234.844L191.211 235.108ZM188.163 232.372C187.555 232.372 187.043 232.568 186.627 232.96C186.219 233.344 185.987 233.848 185.931 234.472H190.407C190.351 233.848 190.115 233.344 189.699 232.96C189.291 232.568 188.779 232.372 188.163 232.372ZM193.774 232.924C193.974 232.5 194.27 232.18 194.662 231.964C195.062 231.748 195.554 231.64 196.138 231.64V232.468L195.934 232.456C195.27 232.456 194.75 232.66 194.374 233.068C193.998 233.476 193.81 234.048 193.81 234.784V238H192.958V231.688H193.774V232.924ZM199.419 238.06C198.907 238.06 198.415 237.988 197.943 237.844C197.479 237.692 197.115 237.504 196.851 237.28L197.235 236.608C197.499 236.816 197.831 236.988 198.231 237.124C198.631 237.252 199.047 237.316 199.479 237.316C200.055 237.316 200.479 237.228 200.751 237.052C201.031 236.868 201.171 236.612 201.171 236.284C201.171 236.052 201.095 235.872 200.943 235.744C200.791 235.608 200.599 235.508 200.367 235.444C200.135 235.372 199.827 235.304 199.443 235.24C198.931 235.144 198.519 235.048 198.207 234.952C197.895 234.848 197.627 234.676 197.403 234.436C197.187 234.196 197.079 233.864 197.079 233.44C197.079 232.912 197.299 232.48 197.739 232.144C198.179 231.808 198.791 231.64 199.575 231.64C199.983 231.64 200.391 231.696 200.799 231.808C201.207 231.912 201.543 232.052 201.807 232.228L201.435 232.912C200.915 232.552 200.295 232.372 199.575 232.372C199.031 232.372 198.619 232.468 198.339 232.66C198.067 232.852 197.931 233.104 197.931 233.416C197.931 233.656 198.007 233.848 198.159 233.992C198.319 234.136 198.515 234.244 198.747 234.316C198.979 234.38 199.299 234.448 199.707 234.52C200.211 234.616 200.615 234.712 200.919 234.808C201.223 234.904 201.483 235.068 201.699 235.3C201.915 235.532 202.023 235.852 202.023 236.26C202.023 236.812 201.791 237.252 201.327 237.58C200.871 237.9 200.235 238.06 199.419 238.06ZM206.178 238.06C205.57 238.06 205.022 237.924 204.534 237.652C204.046 237.372 203.662 236.988 203.382 236.5C203.102 236.012 202.962 235.46 202.962 234.844C202.962 234.228 203.102 233.676 203.382 233.188C203.662 232.7 204.046 232.32 204.534 232.048C205.022 231.776 205.57 231.64 206.178 231.64C206.786 231.64 207.334 231.776 207.822 232.048C208.31 232.32 208.69 232.7 208.962 233.188C209.242 233.676 209.382 234.228 209.382 234.844C209.382 235.46 209.242 236.012 208.962 236.5C208.69 236.988 208.31 237.372 207.822 237.652C207.334 237.924 206.786 238.06 206.178 238.06ZM206.178 237.304C206.626 237.304 207.026 237.204 207.378 237.004C207.738 236.796 208.018 236.504 208.218 236.128C208.418 235.752 208.518 235.324 208.518 234.844C208.518 234.364 208.418 233.936 208.218 233.56C208.018 233.184 207.738 232.896 207.378 232.696C207.026 232.488 206.626 232.384 206.178 232.384C205.73 232.384 205.326 232.488 204.966 232.696C204.614 232.896 204.334 233.184 204.126 233.56C203.926 233.936 203.826 234.364 203.826 234.844C203.826 235.324 203.926 235.752 204.126 236.128C204.334 236.504 204.614 236.796 204.966 237.004C205.326 237.204 205.73 237.304 206.178 237.304ZM214.338 231.64C215.13 231.64 215.758 231.872 216.222 232.336C216.694 232.792 216.93 233.46 216.93 234.34V238H216.078V234.424C216.078 233.768 215.914 233.268 215.586 232.924C215.258 232.58 214.79 232.408 214.182 232.408C213.502 232.408 212.962 232.612 212.562 233.02C212.17 233.42 211.974 233.976 211.974 234.688V238H211.122V231.688H211.938V232.852C212.17 232.468 212.49 232.172 212.898 231.964C213.314 231.748 213.794 231.64 214.338 231.64ZM221.451 231.64C222.275 231.64 222.907 231.848 223.347 232.264C223.787 232.672 224.007 233.28 224.007 234.088V238H223.191V237.016C222.999 237.344 222.715 237.6 222.339 237.784C221.971 237.968 221.531 238.06 221.019 238.06C220.315 238.06 219.755 237.892 219.339 237.556C218.923 237.22 218.715 236.776 218.715 236.224C218.715 235.688 218.907 235.256 219.291 234.928C219.683 234.6 220.303 234.436 221.151 234.436H223.155V234.052C223.155 233.508 223.003 233.096 222.699 232.816C222.395 232.528 221.951 232.384 221.367 232.384C220.967 232.384 220.583 232.452 220.215 232.588C219.847 232.716 219.531 232.896 219.267 233.128L218.883 232.492C219.203 232.22 219.587 232.012 220.035 231.868C220.483 231.716 220.955 231.64 221.451 231.64ZM221.151 237.388C221.631 237.388 222.043 237.28 222.387 237.064C222.731 236.84 222.987 236.52 223.155 236.104V235.072H221.175C220.095 235.072 219.555 235.448 219.555 236.2C219.555 236.568 219.695 236.86 219.975 237.076C220.255 237.284 220.647 237.388 221.151 237.388ZM226.321 229.096H227.173V238H226.321V229.096ZM229.543 231.688H230.395V238H229.543V231.688ZM229.975 230.308C229.799 230.308 229.651 230.248 229.531 230.128C229.411 230.008 229.351 229.864 229.351 229.696C229.351 229.536 229.411 229.396 229.531 229.276C229.651 229.156 229.799 229.096 229.975 229.096C230.151 229.096 230.299 229.156 230.419 229.276C230.539 229.388 230.599 229.524 230.599 229.684C230.599 229.86 230.539 230.008 230.419 230.128C230.299 230.248 230.151 230.308 229.975 230.308ZM237.218 237.292V238H232.082V237.436L236.054 232.408H232.154V231.688H237.146V232.252L233.174 237.292H237.218ZM241.103 231.64C241.927 231.64 242.559 231.848 242.999 232.264C243.439 232.672 243.659 233.28 243.659 234.088V238H242.843V237.016C242.651 237.344 242.367 237.6 241.991 237.784C241.623 237.968 241.183 238.06 240.671 238.06C239.967 238.06 239.407 237.892 238.991 237.556C238.575 237.22 238.367 236.776 238.367 236.224C238.367 235.688 238.559 235.256 238.943 234.928C239.335 234.6 239.955 234.436 240.803 234.436H242.807V234.052C242.807 233.508 242.655 233.096 242.351 232.816C242.047 232.528 241.603 232.384 241.019 232.384C240.619 232.384 240.235 232.452 239.867 232.588C239.499 232.716 239.183 232.896 238.919 233.128L238.535 232.492C238.855 232.22 239.239 232.012 239.687 231.868C240.135 231.716 240.607 231.64 241.103 231.64ZM240.803 237.388C241.283 237.388 241.695 237.28 242.039 237.064C242.383 236.84 242.639 236.52 242.807 236.104V235.072H240.827C239.747 235.072 239.207 235.448 239.207 236.2C239.207 236.568 239.347 236.86 239.627 237.076C239.907 237.284 240.299 237.388 240.803 237.388ZM251.757 229.096V238H250.941V236.752C250.685 237.176 250.345 237.5 249.921 237.724C249.505 237.948 249.033 238.06 248.505 238.06C247.913 238.06 247.377 237.924 246.897 237.652C246.417 237.38 246.041 237 245.769 236.512C245.497 236.024 245.361 235.468 245.361 234.844C245.361 234.22 245.497 233.664 245.769 233.176C246.041 232.688 246.417 232.312 246.897 232.048C247.377 231.776 247.913 231.64 248.505 231.64C249.017 231.64 249.477 231.748 249.885 231.964C250.301 232.172 250.641 232.48 250.905 232.888V229.096H251.757ZM248.577 237.304C249.017 237.304 249.413 237.204 249.765 237.004C250.125 236.796 250.405 236.504 250.605 236.128C250.813 235.752 250.917 235.324 250.917 234.844C250.917 234.364 250.813 233.936 250.605 233.56C250.405 233.184 250.125 232.896 249.765 232.696C249.413 232.488 249.017 232.384 248.577 232.384C248.129 232.384 247.725 232.488 247.365 232.696C247.013 232.896 246.733 233.184 246.525 233.56C246.325 233.936 246.225 234.364 246.225 234.844C246.225 235.324 246.325 235.752 246.525 236.128C246.733 236.504 247.013 236.796 247.365 237.004C247.725 237.204 248.129 237.304 248.577 237.304ZM256.709 238.06C256.101 238.06 255.553 237.924 255.065 237.652C254.577 237.372 254.193 236.988 253.913 236.5C253.633 236.012 253.493 235.46 253.493 234.844C253.493 234.228 253.633 233.676 253.913 233.188C254.193 232.7 254.577 232.32 255.065 232.048C255.553 231.776 256.101 231.64 256.709 231.64C257.317 231.64 257.865 231.776 258.353 232.048C258.841 232.32 259.221 232.7 259.493 233.188C259.773 233.676 259.913 234.228 259.913 234.844C259.913 235.46 259.773 236.012 259.493 236.5C259.221 236.988 258.841 237.372 258.353 237.652C257.865 237.924 257.317 238.06 256.709 238.06ZM256.709 237.304C257.157 237.304 257.557 237.204 257.909 237.004C258.269 236.796 258.549 236.504 258.749 236.128C258.949 235.752 259.049 235.324 259.049 234.844C259.049 234.364 258.949 233.936 258.749 233.56C258.549 233.184 258.269 232.896 257.909 232.696C257.557 232.488 257.157 232.384 256.709 232.384C256.261 232.384 255.857 232.488 255.497 232.696C255.145 232.896 254.865 233.184 254.657 233.56C254.457 233.936 254.357 234.364 254.357 234.844C254.357 235.324 254.457 235.752 254.657 236.128C254.865 236.504 255.145 236.796 255.497 237.004C255.857 237.204 256.261 237.304 256.709 237.304ZM133.601 246.64C134.425 246.64 135.057 246.848 135.497 247.264C135.937 247.672 136.157 248.28 136.157 249.088V253H135.341V252.016C135.149 252.344 134.865 252.6 134.489 252.784C134.121 252.968 133.681 253.06 133.169 253.06C132.465 253.06 131.905 252.892 131.489 252.556C131.073 252.22 130.865 251.776 130.865 251.224C130.865 250.688 131.057 250.256 131.441 249.928C131.833 249.6 132.453 249.436 133.301 249.436H135.305V249.052C135.305 248.508 135.153 248.096 134.849 247.816C134.545 247.528 134.101 247.384 133.517 247.384C133.117 247.384 132.733 247.452 132.365 247.588C131.997 247.716 131.681 247.896 131.417 248.128L131.033 247.492C131.353 247.22 131.737 247.012 132.185 246.868C132.633 246.716 133.105 246.64 133.601 246.64ZM133.301 252.388C133.781 252.388 134.193 252.28 134.537 252.064C134.881 251.84 135.137 251.52 135.305 251.104V250.072H133.325C132.245 250.072 131.705 250.448 131.705 251.2C131.705 251.568 131.845 251.86 132.125 252.076C132.405 252.284 132.797 252.388 133.301 252.388ZM147.3 246.688V253H146.484V251.848C146.26 252.232 145.952 252.532 145.56 252.748C145.168 252.956 144.72 253.06 144.216 253.06C143.392 253.06 142.74 252.832 142.26 252.376C141.788 251.912 141.552 251.236 141.552 250.348V246.688H142.404V250.264C142.404 250.928 142.568 251.432 142.896 251.776C143.224 252.12 143.692 252.292 144.3 252.292C144.964 252.292 145.488 252.092 145.872 251.692C146.256 251.284 146.448 250.72 146.448 250V246.688H147.3ZM152.902 246.64C153.694 246.64 154.322 246.872 154.786 247.336C155.258 247.792 155.494 248.46 155.494 249.34V253H154.642V249.424C154.642 248.768 154.478 248.268 154.15 247.924C153.822 247.58 153.354 247.408 152.746 247.408C152.066 247.408 151.526 247.612 151.126 248.02C150.734 248.42 150.538 248.976 150.538 249.688V253H149.686V246.688H150.502V247.852C150.734 247.468 151.054 247.172 151.462 246.964C151.878 246.748 152.358 246.64 152.902 246.64ZM164.2 246.64C164.792 246.64 165.328 246.776 165.808 247.048C166.288 247.312 166.664 247.688 166.936 248.176C167.208 248.664 167.344 249.22 167.344 249.844C167.344 250.476 167.208 251.036 166.936 251.524C166.664 252.012 166.288 252.392 165.808 252.664C165.336 252.928 164.8 253.06 164.2 253.06C163.688 253.06 163.224 252.956 162.808 252.748C162.4 252.532 162.064 252.22 161.8 251.812V255.328H160.948V246.688H161.764V247.936C162.02 247.52 162.356 247.2 162.772 246.976C163.196 246.752 163.672 246.64 164.2 246.64ZM164.14 252.304C164.58 252.304 164.98 252.204 165.34 252.004C165.7 251.796 165.98 251.504 166.18 251.128C166.388 250.752 166.492 250.324 166.492 249.844C166.492 249.364 166.388 248.94 166.18 248.572C165.98 248.196 165.7 247.904 165.34 247.696C164.98 247.488 164.58 247.384 164.14 247.384C163.692 247.384 163.288 247.488 162.928 247.696C162.576 247.904 162.296 248.196 162.088 248.572C161.888 248.94 161.788 249.364 161.788 249.844C161.788 250.324 161.888 250.752 162.088 251.128C162.296 251.504 162.576 251.796 162.928 252.004C163.288 252.204 163.692 252.304 164.14 252.304ZM169.897 247.924C170.097 247.5 170.393 247.18 170.785 246.964C171.185 246.748 171.677 246.64 172.261 246.64V247.468L172.057 247.456C171.393 247.456 170.873 247.66 170.497 248.068C170.121 248.476 169.933 249.048 169.933 249.784V253H169.081V246.688H169.897V247.924ZM179.241 250.108H173.961C174.009 250.764 174.261 251.296 174.717 251.704C175.173 252.104 175.749 252.304 176.445 252.304C176.837 252.304 177.197 252.236 177.525 252.1C177.853 251.956 178.137 251.748 178.377 251.476L178.857 252.028C178.577 252.364 178.225 252.62 177.801 252.796C177.385 252.972 176.925 253.06 176.421 253.06C175.773 253.06 175.197 252.924 174.693 252.652C174.197 252.372 173.809 251.988 173.529 251.5C173.249 251.012 173.109 250.46 173.109 249.844C173.109 249.228 173.241 248.676 173.505 248.188C173.777 247.7 174.145 247.32 174.609 247.048C175.081 246.776 175.609 246.64 176.193 246.64C176.777 246.64 177.301 246.776 177.765 247.048C178.229 247.32 178.593 247.7 178.857 248.188C179.121 248.668 179.253 249.22 179.253 249.844L179.241 250.108ZM176.193 247.372C175.585 247.372 175.073 247.568 174.657 247.96C174.249 248.344 174.017 248.848 173.961 249.472H178.437C178.381 248.848 178.145 248.344 177.729 247.96C177.321 247.568 176.809 247.372 176.193 247.372ZM183.603 253.06C182.979 253.06 182.419 252.924 181.923 252.652C181.435 252.38 181.051 252 180.771 251.512C180.491 251.016 180.351 250.46 180.351 249.844C180.351 249.228 180.491 248.676 180.771 248.188C181.051 247.7 181.435 247.32 181.923 247.048C182.419 246.776 182.979 246.64 183.603 246.64C184.147 246.64 184.631 246.748 185.055 246.964C185.487 247.172 185.827 247.48 186.075 247.888L185.439 248.32C185.231 248.008 184.967 247.776 184.647 247.624C184.327 247.464 183.979 247.384 183.603 247.384C183.147 247.384 182.735 247.488 182.367 247.696C182.007 247.896 181.723 248.184 181.515 248.56C181.315 248.936 181.215 249.364 181.215 249.844C181.215 250.332 181.315 250.764 181.515 251.14C181.723 251.508 182.007 251.796 182.367 252.004C182.735 252.204 183.147 252.304 183.603 252.304C183.979 252.304 184.327 252.228 184.647 252.076C184.967 251.924 185.231 251.692 185.439 251.38L186.075 251.812C185.827 252.22 185.487 252.532 185.055 252.748C184.623 252.956 184.139 253.06 183.603 253.06ZM187.749 246.688H188.601V253H187.749V246.688ZM188.181 245.308C188.005 245.308 187.857 245.248 187.737 245.128C187.617 245.008 187.557 244.864 187.557 244.696C187.557 244.536 187.617 244.396 187.737 244.276C187.857 244.156 188.005 244.096 188.181 244.096C188.357 244.096 188.505 244.156 188.625 244.276C188.745 244.388 188.805 244.524 188.805 244.684C188.805 244.86 188.745 245.008 188.625 245.128C188.505 245.248 188.357 245.308 188.181 245.308ZM193.551 253.06C192.943 253.06 192.395 252.924 191.907 252.652C191.419 252.372 191.035 251.988 190.755 251.5C190.475 251.012 190.335 250.46 190.335 249.844C190.335 249.228 190.475 248.676 190.755 248.188C191.035 247.7 191.419 247.32 191.907 247.048C192.395 246.776 192.943 246.64 193.551 246.64C194.159 246.64 194.707 246.776 195.195 247.048C195.683 247.32 196.063 247.7 196.335 248.188C196.615 248.676 196.755 249.228 196.755 249.844C196.755 250.46 196.615 251.012 196.335 251.5C196.063 251.988 195.683 252.372 195.195 252.652C194.707 252.924 194.159 253.06 193.551 253.06ZM193.551 252.304C193.999 252.304 194.399 252.204 194.751 252.004C195.111 251.796 195.391 251.504 195.591 251.128C195.791 250.752 195.891 250.324 195.891 249.844C195.891 249.364 195.791 248.936 195.591 248.56C195.391 248.184 195.111 247.896 194.751 247.696C194.399 247.488 193.999 247.384 193.551 247.384C193.103 247.384 192.699 247.488 192.339 247.696C191.987 247.896 191.707 248.184 191.499 248.56C191.299 248.936 191.199 249.364 191.199 249.844C191.199 250.324 191.299 250.752 191.499 251.128C191.707 251.504 191.987 251.796 192.339 252.004C192.699 252.204 193.103 252.304 193.551 252.304ZM203.843 246.64C204.667 246.64 205.299 246.848 205.739 247.264C206.179 247.672 206.399 248.28 206.399 249.088V253H205.583V252.016C205.391 252.344 205.107 252.6 204.731 252.784C204.363 252.968 203.923 253.06 203.411 253.06C202.707 253.06 202.147 252.892 201.731 252.556C201.315 252.22 201.107 251.776 201.107 251.224C201.107 250.688 201.299 250.256 201.683 249.928C202.075 249.6 202.695 249.436 203.543 249.436H205.547V249.052C205.547 248.508 205.395 248.096 205.091 247.816C204.787 247.528 204.343 247.384 203.759 247.384C203.359 247.384 202.975 247.452 202.607 247.588C202.239 247.716 201.923 247.896 201.659 248.128L201.275 247.492C201.595 247.22 201.979 247.012 202.427 246.868C202.875 246.716 203.347 246.64 203.843 246.64ZM203.543 252.388C204.023 252.388 204.435 252.28 204.779 252.064C205.123 251.84 205.379 251.52 205.547 251.104V250.072H203.567C202.487 250.072 201.947 250.448 201.947 251.2C201.947 251.568 202.087 251.86 202.367 252.076C202.647 252.284 203.039 252.388 203.543 252.388ZM211.353 253.06C210.729 253.06 210.169 252.924 209.673 252.652C209.185 252.38 208.801 252 208.521 251.512C208.241 251.016 208.101 250.46 208.101 249.844C208.101 249.228 208.241 248.676 208.521 248.188C208.801 247.7 209.185 247.32 209.673 247.048C210.169 246.776 210.729 246.64 211.353 246.64C211.897 246.64 212.381 246.748 212.805 246.964C213.237 247.172 213.577 247.48 213.825 247.888L213.189 248.32C212.981 248.008 212.717 247.776 212.397 247.624C212.077 247.464 211.729 247.384 211.353 247.384C210.897 247.384 210.485 247.488 210.117 247.696C209.757 247.896 209.473 248.184 209.265 248.56C209.065 248.936 208.965 249.364 208.965 249.844C208.965 250.332 209.065 250.764 209.265 251.14C209.473 251.508 209.757 251.796 210.117 252.004C210.485 252.204 210.897 252.304 211.353 252.304C211.729 252.304 212.077 252.228 212.397 252.076C212.717 251.924 212.981 251.692 213.189 251.38L213.825 251.812C213.577 252.22 213.237 252.532 212.805 252.748C212.373 252.956 211.889 253.06 211.353 253.06ZM218.009 253.06C217.385 253.06 216.825 252.924 216.329 252.652C215.841 252.38 215.457 252 215.177 251.512C214.897 251.016 214.757 250.46 214.757 249.844C214.757 249.228 214.897 248.676 215.177 248.188C215.457 247.7 215.841 247.32 216.329 247.048C216.825 246.776 217.385 246.64 218.009 246.64C218.553 246.64 219.037 246.748 219.461 246.964C219.893 247.172 220.233 247.48 220.481 247.888L219.845 248.32C219.637 248.008 219.373 247.776 219.053 247.624C218.733 247.464 218.385 247.384 218.009 247.384C217.553 247.384 217.141 247.488 216.773 247.696C216.413 247.896 216.129 248.184 215.921 248.56C215.721 248.936 215.621 249.364 215.621 249.844C215.621 250.332 215.721 250.764 215.921 251.14C216.129 251.508 216.413 251.796 216.773 252.004C217.141 252.204 217.553 252.304 218.009 252.304C218.385 252.304 218.733 252.228 219.053 252.076C219.373 251.924 219.637 251.692 219.845 251.38L220.481 251.812C220.233 252.22 219.893 252.532 219.461 252.748C219.029 252.956 218.545 253.06 218.009 253.06ZM227.545 250.108H222.265C222.313 250.764 222.565 251.296 223.021 251.704C223.477 252.104 224.053 252.304 224.749 252.304C225.141 252.304 225.501 252.236 225.829 252.1C226.157 251.956 226.441 251.748 226.681 251.476L227.161 252.028C226.881 252.364 226.529 252.62 226.105 252.796C225.689 252.972 225.229 253.06 224.725 253.06C224.077 253.06 223.501 252.924 222.997 252.652C222.501 252.372 222.113 251.988 221.833 251.5C221.553 251.012 221.413 250.46 221.413 249.844C221.413 249.228 221.545 248.676 221.809 248.188C222.081 247.7 222.449 247.32 222.913 247.048C223.385 246.776 223.913 246.64 224.497 246.64C225.081 246.64 225.605 246.776 226.069 247.048C226.533 247.32 226.897 247.7 227.161 248.188C227.425 248.668 227.557 249.22 227.557 249.844L227.545 250.108ZM224.497 247.372C223.889 247.372 223.377 247.568 222.961 247.96C222.553 248.344 222.321 248.848 222.265 249.472H226.741C226.685 248.848 226.449 248.344 226.033 247.96C225.625 247.568 225.113 247.372 224.497 247.372ZM230.984 253.06C230.472 253.06 229.98 252.988 229.508 252.844C229.044 252.692 228.68 252.504 228.416 252.28L228.8 251.608C229.064 251.816 229.396 251.988 229.796 252.124C230.196 252.252 230.612 252.316 231.044 252.316C231.62 252.316 232.044 252.228 232.316 252.052C232.596 251.868 232.736 251.612 232.736 251.284C232.736 251.052 232.66 250.872 232.508 250.744C232.356 250.608 232.164 250.508 231.932 250.444C231.7 250.372 231.392 250.304 231.008 250.24C230.496 250.144 230.084 250.048 229.772 249.952C229.46 249.848 229.192 249.676 228.968 249.436C228.752 249.196 228.644 248.864 228.644 248.44C228.644 247.912 228.864 247.48 229.304 247.144C229.744 246.808 230.356 246.64 231.14 246.64C231.548 246.64 231.956 246.696 232.364 246.808C232.772 246.912 233.108 247.052 233.372 247.228L233 247.912C232.48 247.552 231.86 247.372 231.14 247.372C230.596 247.372 230.184 247.468 229.904 247.66C229.632 247.852 229.496 248.104 229.496 248.416C229.496 248.656 229.572 248.848 229.724 248.992C229.884 249.136 230.08 249.244 230.312 249.316C230.544 249.38 230.864 249.448 231.272 249.52C231.776 249.616 232.18 249.712 232.484 249.808C232.788 249.904 233.048 250.068 233.264 250.3C233.48 250.532 233.588 250.852 233.588 251.26C233.588 251.812 233.356 252.252 232.892 252.58C232.436 252.9 231.8 253.06 230.984 253.06ZM235.163 246.688H236.015V253H235.163V246.688ZM235.595 245.308C235.419 245.308 235.271 245.248 235.151 245.128C235.031 245.008 234.971 244.864 234.971 244.696C234.971 244.536 235.031 244.396 235.151 244.276C235.271 244.156 235.419 244.096 235.595 244.096C235.771 244.096 235.919 244.156 236.039 244.276C236.159 244.388 236.219 244.524 236.219 244.684C236.219 244.86 236.159 245.008 236.039 245.128C235.919 245.248 235.771 245.308 235.595 245.308ZM241.637 246.64C242.229 246.64 242.765 246.776 243.245 247.048C243.725 247.312 244.101 247.688 244.373 248.176C244.645 248.664 244.781 249.22 244.781 249.844C244.781 250.468 244.645 251.024 244.373 251.512C244.101 252 243.725 252.38 243.245 252.652C242.765 252.924 242.229 253.06 241.637 253.06C241.109 253.06 240.633 252.948 240.209 252.724C239.793 252.5 239.457 252.176 239.201 251.752V253H238.385V244.096H239.237V247.888C239.501 247.48 239.837 247.172 240.245 246.964C240.661 246.748 241.125 246.64 241.637 246.64ZM241.577 252.304C242.017 252.304 242.417 252.204 242.777 252.004C243.137 251.796 243.417 251.504 243.617 251.128C243.825 250.752 243.929 250.324 243.929 249.844C243.929 249.364 243.825 248.936 243.617 248.56C243.417 248.184 243.137 247.896 242.777 247.696C242.417 247.488 242.017 247.384 241.577 247.384C241.129 247.384 240.725 247.488 240.365 247.696C240.013 247.896 239.733 248.184 239.525 248.56C239.325 248.936 239.225 249.364 239.225 249.844C239.225 250.324 239.325 250.752 239.525 251.128C239.733 251.504 240.013 251.796 240.365 252.004C240.725 252.204 241.129 252.304 241.577 252.304ZM246.518 244.096H247.37V253H246.518V244.096ZM255.237 250.108H249.957C250.005 250.764 250.257 251.296 250.713 251.704C251.169 252.104 251.745 252.304 252.441 252.304C252.833 252.304 253.193 252.236 253.521 252.1C253.849 251.956 254.133 251.748 254.373 251.476L254.853 252.028C254.573 252.364 254.221 252.62 253.797 252.796C253.381 252.972 252.921 253.06 252.417 253.06C251.769 253.06 251.193 252.924 250.689 252.652C250.193 252.372 249.805 251.988 249.525 251.5C249.245 251.012 249.105 250.46 249.105 249.844C249.105 249.228 249.237 248.676 249.501 248.188C249.773 247.7 250.141 247.32 250.605 247.048C251.077 246.776 251.605 246.64 252.189 246.64C252.773 246.64 253.297 246.776 253.761 247.048C254.225 247.32 254.589 247.7 254.853 248.188C255.117 248.668 255.249 249.22 255.249 249.844L255.237 250.108ZM252.189 247.372C251.581 247.372 251.069 247.568 250.653 247.96C250.245 248.344 250.013 248.848 249.957 249.472H254.433C254.377 248.848 254.141 248.344 253.725 247.96C253.317 247.568 252.805 247.372 252.189 247.372Z" fill="white"/>
<path d="M177.256 210.8L173.592 222H170.808L168.344 214.416L165.8 222H163.032L159.352 210.8H162.04L164.568 218.672L167.208 210.8H169.608L172.168 218.736L174.776 210.8H177.256ZM181.358 213.264C182.692 213.264 183.716 213.584 184.43 214.224C185.145 214.853 185.502 215.808 185.502 217.088V222H183.166V220.928C182.697 221.728 181.822 222.128 180.542 222.128C179.881 222.128 179.305 222.016 178.814 221.792C178.334 221.568 177.966 221.259 177.71 220.864C177.454 220.469 177.326 220.021 177.326 219.52C177.326 218.72 177.625 218.091 178.222 217.632C178.83 217.173 179.764 216.944 181.022 216.944H183.006C183.006 216.4 182.841 215.984 182.51 215.696C182.18 215.397 181.684 215.248 181.022 215.248C180.564 215.248 180.11 215.323 179.662 215.472C179.225 215.611 178.852 215.803 178.542 216.048L177.646 214.304C178.116 213.973 178.676 213.717 179.326 213.536C179.988 213.355 180.665 213.264 181.358 213.264ZM181.166 220.448C181.593 220.448 181.972 220.352 182.302 220.16C182.633 219.957 182.868 219.664 183.006 219.28V218.4H181.294C180.27 218.4 179.758 218.736 179.758 219.408C179.758 219.728 179.881 219.984 180.126 220.176C180.382 220.357 180.729 220.448 181.166 220.448ZM187.761 210.128H190.257V222H187.761V210.128ZM196.27 218.624L195.07 219.808V222H192.574V210.128H195.07V216.848L198.718 213.392H201.694L198.11 217.04L202.014 222H198.99L196.27 218.624ZM211.193 217.728C211.193 217.76 211.177 217.984 211.145 218.4H204.633C204.751 218.933 205.028 219.355 205.465 219.664C205.903 219.973 206.447 220.128 207.097 220.128C207.545 220.128 207.94 220.064 208.281 219.936C208.633 219.797 208.959 219.584 209.257 219.296L210.585 220.736C209.775 221.664 208.591 222.128 207.033 222.128C206.063 222.128 205.204 221.941 204.457 221.568C203.711 221.184 203.135 220.656 202.729 219.984C202.324 219.312 202.121 218.549 202.121 217.696C202.121 216.853 202.319 216.096 202.713 215.424C203.119 214.741 203.668 214.213 204.361 213.84C205.065 213.456 205.849 213.264 206.713 213.264C207.556 213.264 208.319 213.445 209.001 213.808C209.684 214.171 210.217 214.693 210.601 215.376C210.996 216.048 211.193 216.832 211.193 217.728ZM206.729 215.152C206.164 215.152 205.689 215.312 205.305 215.632C204.921 215.952 204.687 216.389 204.601 216.944H208.841C208.756 216.4 208.521 215.968 208.137 215.648C207.753 215.317 207.284 215.152 206.729 215.152ZM215.239 214.528C215.538 214.112 215.938 213.797 216.439 213.584C216.951 213.371 217.538 213.264 218.199 213.264V215.568C217.922 215.547 217.735 215.536 217.639 215.536C216.924 215.536 216.364 215.739 215.959 216.144C215.554 216.539 215.351 217.136 215.351 217.936V222H212.855V213.392H215.239V214.528ZM222.611 222.128C221.896 222.128 221.197 222.043 220.515 221.872C219.832 221.691 219.288 221.467 218.883 221.2L219.715 219.408C220.099 219.653 220.563 219.856 221.107 220.016C221.651 220.165 222.184 220.24 222.707 220.24C223.763 220.24 224.291 219.979 224.291 219.456C224.291 219.211 224.147 219.035 223.859 218.928C223.571 218.821 223.128 218.731 222.531 218.656C221.827 218.549 221.245 218.427 220.787 218.288C220.328 218.149 219.928 217.904 219.587 217.552C219.256 217.2 219.09 216.699 219.09 216.048C219.09 215.504 219.245 215.024 219.555 214.608C219.875 214.181 220.333 213.851 220.931 213.616C221.539 213.381 222.253 213.264 223.075 213.264C223.683 213.264 224.285 213.333 224.883 213.472C225.491 213.6 225.992 213.781 226.387 214.016L225.555 215.792C224.797 215.365 223.971 215.152 223.075 215.152C222.541 215.152 222.141 215.227 221.875 215.376C221.608 215.525 221.475 215.717 221.475 215.952C221.475 216.219 221.619 216.405 221.907 216.512C222.195 216.619 222.653 216.72 223.283 216.816C223.987 216.933 224.563 217.061 225.011 217.2C225.459 217.328 225.848 217.568 226.179 217.92C226.509 218.272 226.675 218.763 226.675 219.392C226.675 219.925 226.515 220.4 226.195 220.816C225.875 221.232 225.405 221.557 224.787 221.792C224.179 222.016 223.453 222.128 222.611 222.128Z" fill="white"/>
<path d="M229.5 152V152C230.069 151.431 230.976 151.381 231.604 151.883L232.785 152.828C232.928 152.943 233.08 153.045 233.24 153.133L235 154.111M229.5 152L226 149M229.5 152L229.75 153.5M226 149L220.5 146.5M226 149L225.5 151M220.5 146.5H218.059C217.716 146.5 217.403 146.306 217.25 146V146M220.5 146.5V149.5M212 142.5L209.5 140L208 138.5M212 142.5L210.5 143.5M212 142.5L214 143M208 138.5L202.5 137.5M208 138.5L207.64 140.301C207.547 140.763 207.366 141.201 207.105 141.593L206.801 142.049C206.605 142.343 206.5 142.689 206.5 143.042V143.042C206.5 143.641 206.799 144.199 207.297 144.531L207.549 144.699C207.843 144.895 208.189 145 208.542 145V145C209.141 145 209.699 144.701 210.031 144.203L210.5 143.5M202.5 137.5L199.5 136.5M202.5 137.5V140M199.5 136.5L195.5 133.5M199.5 136.5L198.5 138M195.5 133.5L193.304 131.931C192.456 131.326 191.44 131 190.398 131H190M195.5 133.5L195 135.5M190 131H189M190 131L191.756 134.513C191.917 134.833 192 135.186 192 135.545V136.086C192 136.351 192.105 136.605 192.293 136.793V136.793C192.683 137.183 193.317 137.183 193.707 136.793L194 136.5L195 135.5M189 131L188.043 128.128C187.691 127.073 186.998 126.165 186.073 125.548L185.066 124.877C184.697 124.631 184.263 124.5 183.82 124.5H181.846C181.201 124.5 180.761 123.849 181 123.25V123.25M189 131L187.286 133.057C186.799 133.641 186.039 133.923 185.289 133.798V133.798C184.257 133.626 183.5 132.733 183.5 131.686V130.707C183.5 130.254 183.32 129.82 183 129.5V129.5C182.68 129.18 182.246 129 181.793 129H180.5H177.375C176.339 129 175.5 128.161 175.5 127.125V127.125C175.5 126.719 175.63 126.324 175.884 126.008C176.511 125.229 177.538 124.052 178.5 123.25C179.7 122.25 180.667 122.833 181 123.25M181 123.25V123.25C181.31 122.474 181.194 121.592 180.692 120.923L177.213 116.284C177.071 116.095 176.916 115.916 176.749 115.749L175.215 114.215C173.392 112.392 170.482 112.254 168.495 113.896L161.606 119.587C160.883 120.184 160.343 120.971 160.047 121.86L158.757 125.73C158.587 126.24 158.5 126.774 158.5 127.311V130.608C158.5 130.859 158.6 131.1 158.777 131.277V131.277C159.167 131.667 159.143 132.306 158.724 132.665L156.228 134.805C156.076 134.935 155.915 135.053 155.746 135.159L152.446 137.221C152.15 137.406 151.834 137.56 151.505 137.68L146.933 139.343C146.645 139.447 146.348 139.525 146.046 139.576L140.908 140.432C140.637 140.477 140.362 140.5 140.086 140.5H136.061C135.361 140.5 134.67 140.353 134.03 140.069L131.057 138.748C130.687 138.583 130.338 138.374 130.018 138.125L126.529 135.411C126.178 135.138 125.865 134.82 125.598 134.464L123.547 131.729C123.185 131.247 122.74 130.834 122.231 130.511L119.459 128.746C118.225 127.962 116.695 127.802 115.326 128.315V128.315C114.158 128.753 113.215 129.642 112.708 130.782L111.931 132.53C111.647 133.17 111.5 133.861 111.5 134.561V135.97C111.5 136.322 111.463 136.674 111.389 137.018L110 143.5L108.629 154.01C108.548 154.634 108.761 155.261 109.206 155.706V155.706C109.7 156.2 109.905 156.914 109.747 157.595L108.628 162.445C108.543 162.814 108.5 163.191 108.5 163.569V170.5V172.82C108.5 173.596 108.319 174.361 107.972 175.056L107.528 175.944C107.181 176.639 107 177.404 107 178.18V178.5L106 186V190.384C106 190.793 106.05 191.201 106.149 191.597L106.664 193.656C106.884 194.536 107.338 195.338 107.979 195.979L109.084 197.084C109.685 197.685 110.429 198.123 111.246 198.356L112.872 198.821C113.289 198.94 113.72 199.004 114.153 199.012L121.5 199.148L124.5 199.204L127.5 199.259L130.5 199.315L133.5 199.37L136.5 199.426L137 199.435L139.5 199.481L140.5 199.5H142.5H143H145.5H149H152H155H158.5H161.5H165H168H171.5H174.5H177.5H180.5H183.5H187H190H193H196.5H199.5H202.5H206H208.5H211.5H215H218.5H221.5H224.5H227.5H230.5H234H237H240.5H243H246H249H252.5H255H255.5H258.5H260.75H261.244H262.549C262.849 199.5 263.148 199.473 263.444 199.419L279.059 196.58C279.352 196.527 279.641 196.447 279.92 196.343L282.073 195.535C283.003 195.186 283.808 194.568 284.386 193.76L285.408 192.328C285.799 191.782 286.075 191.162 286.221 190.507L286.789 187.948C286.928 187.322 286.946 186.675 286.84 186.042L286.036 181.217C286.012 181.073 286 180.926 286 180.78V180.78C286 179.971 285.632 179.206 285.001 178.701L284.386 178.208C283.805 177.744 283.355 177.137 283.079 176.447L280.16 169.151C279.733 168.083 278.951 167.195 277.946 166.637L275.656 165.365C275.221 165.123 274.752 164.947 274.266 164.844L242.734 158.156C242.248 158.053 241.779 157.877 241.344 157.635L235 154.111M195 135.5L198.5 138M198.5 138L198.071 139.717C198.024 139.905 198 140.098 198 140.292V140.919C198 141.565 198.413 142.138 199.026 142.342V142.342C199.334 142.445 199.666 142.445 199.974 142.342L200.274 142.242C200.747 142.084 201.16 141.787 201.459 141.388L202.5 140M202.5 140L206.5 142M210.5 143.5L213 145M214 143V143C215.269 143.317 216.337 144.174 216.922 145.344L217.25 146M214 143L213.5 146L213.176 147.296C213.061 147.756 213.08 148.239 213.23 148.689L213.306 148.919C213.432 149.296 213.679 149.62 214.01 149.84V149.84C214.609 150.24 215.391 150.24 215.99 149.84L216.154 149.731C216.382 149.578 216.578 149.382 216.731 149.154L216.85 148.976C217.269 148.346 217.448 147.587 217.355 146.837L217.25 146M220.5 149.5L221.024 150.809C221.321 151.552 221.973 152.095 222.758 152.252V152.252C223.534 152.407 224.336 152.164 224.896 151.604L225.5 151M220.5 149.5L217.25 148M225.5 151L229.75 153.5M235 154.111V154.111C235 154.68 234.774 155.226 234.371 155.629L233.846 156.154C233.617 156.383 233.352 156.574 233.063 156.719L232.339 157.081C231.82 157.34 231.202 157.301 230.72 156.98V156.98C230.27 156.68 230 156.175 230 155.635V155.201C230 155.067 229.989 154.934 229.967 154.802L229.75 153.5" stroke="white"/>
<path d="M107 176.5L116 177.5L127 178L144.5 179L162.5 179.5L177.5 180.5L191 182.5L205 184L218 185H230H246L258.5 184L273 183L282.572 181.564C282.857 181.522 283.138 181.454 283.411 181.363L286 180.5" stroke="white"/>
<path d="M235.4 215.658L306.5 215.5M82 216L153.1 215.842" stroke="white"/>
</g>
<defs>
<filter id="filter0_f_4_20" x="-808" y="-765" width="2102" height="1827" filterUnits="userSpaceOnUse" color-interpolation-filters="sRGB">
<feFlood flood-opacity="0" result="BackgroundImageFix"/>
<feBlend mode="normal" in="SourceGraphic" in2="BackgroundImageFix" result="shape"/>
<feGaussianBlur stdDeviation="161" result="effect1_foregroundBlur_4_20"/>
</filter>
<clipPath id="clip0_4_20">
<rect width="386" height="364" fill="white"/>
</clipPath>
<clipPath id="clip1_4_20">
<rect width="900" height="600" fill="white" transform="translate(-257 -145)"/>
</clipPath>
</defs>
</svg>
