<svg width="386" height="487" viewBox="0 0 386 487" fill="none" xmlns="http://www.w3.org/2000/svg">
<g clip-path="url(#clip0_9_29)">
<rect width="386" height="487" fill="white"/>
<g clip-path="url(#clip1_9_29)">
<path d="M493 -107H-407V493H493V-107Z" fill="#3B3956"/>
<g filter="url(#filter0_f_9_29)">
<path d="M-37 464C160.166 464 320 304.166 320 107C320 -90.1656 160.166 -250 -37 -250C-234.166 -250 -394 -90.1656 -394 107C-394 304.166 -234.166 464 -37 464Z" fill="#13032A"/>
<path d="M379 463C576.166 463 736 303.166 736 106C736 -91.1656 576.166 -251 379 -251C181.834 -251 22 -91.1656 22 106C22 303.166 181.834 463 379 463Z" fill="#13032A"/>
<path d="M254 631C451.166 631 611 471.166 611 274C611 76.8344 451.166 -83 254 -83C56.8344 -83 -103 76.8344 -103 274C-103 471.166 56.8344 631 254 631Z" fill="#3B3956"/>
<path d="M-213 529C-15.8344 529 144 369.166 144 172C144 -25.1656 -15.8344 -185 -213 -185C-410.166 -185 -570 -25.1656 -570 172C-570 369.166 -410.166 529 -213 529Z" fill="#13032A"/>
</g>
</g>
<path d="M319.5 243.5C319.5 313.64 262.64 370.5 192.5 370.5C122.36 370.5 65.5 313.64 65.5 243.5C65.5 173.36 122.36 116.5 192.5 116.5C262.64 116.5 319.5 173.36 319.5 243.5Z" stroke="white"/>
<path d="M130.551 299.072C129.719 299.072 128.967 298.888 128.295 298.52C127.631 298.152 127.107 297.644 126.723 296.996C126.347 296.34 126.159 295.608 126.159 294.8C126.159 293.992 126.347 293.264 126.723 292.616C127.107 291.96 127.635 291.448 128.307 291.08C128.979 290.712 129.731 290.528 130.563 290.528C131.187 290.528 131.763 290.632 132.291 290.84C132.819 291.048 133.267 291.352 133.635 291.752L133.071 292.316C132.415 291.652 131.587 291.32 130.587 291.32C129.923 291.32 129.319 291.472 128.775 291.776C128.231 292.08 127.803 292.496 127.491 293.024C127.187 293.552 127.035 294.144 127.035 294.8C127.035 295.456 127.187 296.048 127.491 296.576C127.803 297.104 128.231 297.52 128.775 297.824C129.319 298.128 129.923 298.28 130.587 298.28C131.595 298.28 132.423 297.944 133.071 297.272L133.635 297.836C133.267 298.236 132.815 298.544 132.279 298.76C131.751 298.968 131.175 299.072 130.551 299.072ZM137.462 292.64C138.286 292.64 138.918 292.848 139.358 293.264C139.798 293.672 140.018 294.28 140.018 295.088V299H139.202V298.016C139.01 298.344 138.726 298.6 138.35 298.784C137.982 298.968 137.542 299.06 137.03 299.06C136.326 299.06 135.766 298.892 135.35 298.556C134.934 298.22 134.726 297.776 134.726 297.224C134.726 296.688 134.918 296.256 135.302 295.928C135.694 295.6 136.314 295.436 137.162 295.436H139.166V295.052C139.166 294.508 139.014 294.096 138.71 293.816C138.406 293.528 137.962 293.384 137.378 293.384C136.978 293.384 136.594 293.452 136.226 293.588C135.858 293.716 135.542 293.896 135.278 294.128L134.894 293.492C135.214 293.22 135.598 293.012 136.046 292.868C136.494 292.716 136.966 292.64 137.462 292.64ZM137.162 298.388C137.642 298.388 138.054 298.28 138.398 298.064C138.742 297.84 138.998 297.52 139.166 297.104V296.072H137.186C136.106 296.072 135.566 296.448 135.566 297.2C135.566 297.568 135.706 297.86 135.986 298.076C136.266 298.284 136.658 298.388 137.162 298.388ZM142.333 290.096H143.185V299H142.333V290.096ZM150.007 298.292V299H144.871V298.436L148.843 293.408H144.943V292.688H149.935V293.252L145.963 298.292H150.007ZM153.892 292.64C154.716 292.64 155.348 292.848 155.788 293.264C156.228 293.672 156.448 294.28 156.448 295.088V299H155.632V298.016C155.44 298.344 155.156 298.6 154.78 298.784C154.412 298.968 153.972 299.06 153.46 299.06C152.756 299.06 152.196 298.892 151.78 298.556C151.364 298.22 151.156 297.776 151.156 297.224C151.156 296.688 151.348 296.256 151.732 295.928C152.124 295.6 152.744 295.436 153.592 295.436H155.596V295.052C155.596 294.508 155.444 294.096 155.14 293.816C154.836 293.528 154.392 293.384 153.808 293.384C153.408 293.384 153.024 293.452 152.656 293.588C152.288 293.716 151.972 293.896 151.708 294.128L151.324 293.492C151.644 293.22 152.028 293.012 152.476 292.868C152.924 292.716 153.396 292.64 153.892 292.64ZM153.592 298.388C154.072 298.388 154.484 298.28 154.828 298.064C155.172 297.84 155.428 297.52 155.596 297.104V296.072H153.616C152.536 296.072 151.996 296.448 151.996 297.2C151.996 297.568 152.136 297.86 152.416 298.076C152.696 298.284 153.088 298.388 153.592 298.388ZM164.546 290.096V299H163.73V297.752C163.474 298.176 163.134 298.5 162.71 298.724C162.294 298.948 161.822 299.06 161.294 299.06C160.702 299.06 160.166 298.924 159.686 298.652C159.206 298.38 158.83 298 158.558 297.512C158.286 297.024 158.15 296.468 158.15 295.844C158.15 295.22 158.286 294.664 158.558 294.176C158.83 293.688 159.206 293.312 159.686 293.048C160.166 292.776 160.702 292.64 161.294 292.64C161.806 292.64 162.266 292.748 162.674 292.964C163.09 293.172 163.43 293.48 163.694 293.888V290.096H164.546ZM161.366 298.304C161.806 298.304 162.202 298.204 162.554 298.004C162.914 297.796 163.194 297.504 163.394 297.128C163.602 296.752 163.706 296.324 163.706 295.844C163.706 295.364 163.602 294.936 163.394 294.56C163.194 294.184 162.914 293.896 162.554 293.696C162.202 293.488 161.806 293.384 161.366 293.384C160.918 293.384 160.514 293.488 160.154 293.696C159.802 293.896 159.522 294.184 159.314 294.56C159.114 294.936 159.014 295.364 159.014 295.844C159.014 296.324 159.114 296.752 159.314 297.128C159.522 297.504 159.802 297.796 160.154 298.004C160.514 298.204 160.918 298.304 161.366 298.304ZM169.498 299.06C168.89 299.06 168.342 298.924 167.854 298.652C167.366 298.372 166.982 297.988 166.702 297.5C166.422 297.012 166.282 296.46 166.282 295.844C166.282 295.228 166.422 294.676 166.702 294.188C166.982 293.7 167.366 293.32 167.854 293.048C168.342 292.776 168.89 292.64 169.498 292.64C170.106 292.64 170.654 292.776 171.142 293.048C171.63 293.32 172.01 293.7 172.282 294.188C172.562 294.676 172.702 295.228 172.702 295.844C172.702 296.46 172.562 297.012 172.282 297.5C172.01 297.988 171.63 298.372 171.142 298.652C170.654 298.924 170.106 299.06 169.498 299.06ZM169.498 298.304C169.946 298.304 170.346 298.204 170.698 298.004C171.058 297.796 171.338 297.504 171.538 297.128C171.738 296.752 171.838 296.324 171.838 295.844C171.838 295.364 171.738 294.936 171.538 294.56C171.338 294.184 171.058 293.896 170.698 293.696C170.346 293.488 169.946 293.384 169.498 293.384C169.05 293.384 168.646 293.488 168.286 293.696C167.934 293.896 167.654 294.184 167.446 294.56C167.246 294.936 167.146 295.364 167.146 295.844C167.146 296.324 167.246 296.752 167.446 297.128C167.654 297.504 167.934 297.796 168.286 298.004C168.646 298.204 169.05 298.304 169.498 298.304ZM180.835 292.64C181.427 292.64 181.963 292.776 182.443 293.048C182.923 293.312 183.299 293.688 183.571 294.176C183.843 294.664 183.979 295.22 183.979 295.844C183.979 296.476 183.843 297.036 183.571 297.524C183.299 298.012 182.923 298.392 182.443 298.664C181.971 298.928 181.435 299.06 180.835 299.06C180.323 299.06 179.859 298.956 179.443 298.748C179.035 298.532 178.699 298.22 178.435 297.812V301.328H177.583V292.688H178.399V293.936C178.655 293.52 178.991 293.2 179.407 292.976C179.831 292.752 180.307 292.64 180.835 292.64ZM180.775 298.304C181.215 298.304 181.615 298.204 181.975 298.004C182.335 297.796 182.615 297.504 182.815 297.128C183.023 296.752 183.127 296.324 183.127 295.844C183.127 295.364 183.023 294.94 182.815 294.572C182.615 294.196 182.335 293.904 181.975 293.696C181.615 293.488 181.215 293.384 180.775 293.384C180.327 293.384 179.923 293.488 179.563 293.696C179.211 293.904 178.931 294.196 178.723 294.572C178.523 294.94 178.423 295.364 178.423 295.844C178.423 296.324 178.523 296.752 178.723 297.128C178.931 297.504 179.211 297.796 179.563 298.004C179.923 298.204 180.327 298.304 180.775 298.304ZM191.211 296.108H185.931C185.979 296.764 186.231 297.296 186.687 297.704C187.143 298.104 187.719 298.304 188.415 298.304C188.807 298.304 189.167 298.236 189.495 298.1C189.823 297.956 190.107 297.748 190.347 297.476L190.827 298.028C190.547 298.364 190.195 298.62 189.771 298.796C189.355 298.972 188.895 299.06 188.391 299.06C187.743 299.06 187.167 298.924 186.663 298.652C186.167 298.372 185.779 297.988 185.499 297.5C185.219 297.012 185.079 296.46 185.079 295.844C185.079 295.228 185.211 294.676 185.475 294.188C185.747 293.7 186.115 293.32 186.579 293.048C187.051 292.776 187.579 292.64 188.163 292.64C188.747 292.64 189.271 292.776 189.735 293.048C190.199 293.32 190.563 293.7 190.827 294.188C191.091 294.668 191.223 295.22 191.223 295.844L191.211 296.108ZM188.163 293.372C187.555 293.372 187.043 293.568 186.627 293.96C186.219 294.344 185.987 294.848 185.931 295.472H190.407C190.351 294.848 190.115 294.344 189.699 293.96C189.291 293.568 188.779 293.372 188.163 293.372ZM193.774 293.924C193.974 293.5 194.27 293.18 194.662 292.964C195.062 292.748 195.554 292.64 196.138 292.64V293.468L195.934 293.456C195.27 293.456 194.75 293.66 194.374 294.068C193.998 294.476 193.81 295.048 193.81 295.784V299H192.958V292.688H193.774V293.924ZM199.419 299.06C198.907 299.06 198.415 298.988 197.943 298.844C197.479 298.692 197.115 298.504 196.851 298.28L197.235 297.608C197.499 297.816 197.831 297.988 198.231 298.124C198.631 298.252 199.047 298.316 199.479 298.316C200.055 298.316 200.479 298.228 200.751 298.052C201.031 297.868 201.171 297.612 201.171 297.284C201.171 297.052 201.095 296.872 200.943 296.744C200.791 296.608 200.599 296.508 200.367 296.444C200.135 296.372 199.827 296.304 199.443 296.24C198.931 296.144 198.519 296.048 198.207 295.952C197.895 295.848 197.627 295.676 197.403 295.436C197.187 295.196 197.079 294.864 197.079 294.44C197.079 293.912 197.299 293.48 197.739 293.144C198.179 292.808 198.791 292.64 199.575 292.64C199.983 292.64 200.391 292.696 200.799 292.808C201.207 292.912 201.543 293.052 201.807 293.228L201.435 293.912C200.915 293.552 200.295 293.372 199.575 293.372C199.031 293.372 198.619 293.468 198.339 293.66C198.067 293.852 197.931 294.104 197.931 294.416C197.931 294.656 198.007 294.848 198.159 294.992C198.319 295.136 198.515 295.244 198.747 295.316C198.979 295.38 199.299 295.448 199.707 295.52C200.211 295.616 200.615 295.712 200.919 295.808C201.223 295.904 201.483 296.068 201.699 296.3C201.915 296.532 202.023 296.852 202.023 297.26C202.023 297.812 201.791 298.252 201.327 298.58C200.871 298.9 200.235 299.06 199.419 299.06ZM206.178 299.06C205.57 299.06 205.022 298.924 204.534 298.652C204.046 298.372 203.662 297.988 203.382 297.5C203.102 297.012 202.962 296.46 202.962 295.844C202.962 295.228 203.102 294.676 203.382 294.188C203.662 293.7 204.046 293.32 204.534 293.048C205.022 292.776 205.57 292.64 206.178 292.64C206.786 292.64 207.334 292.776 207.822 293.048C208.31 293.32 208.69 293.7 208.962 294.188C209.242 294.676 209.382 295.228 209.382 295.844C209.382 296.46 209.242 297.012 208.962 297.5C208.69 297.988 208.31 298.372 207.822 298.652C207.334 298.924 206.786 299.06 206.178 299.06ZM206.178 298.304C206.626 298.304 207.026 298.204 207.378 298.004C207.738 297.796 208.018 297.504 208.218 297.128C208.418 296.752 208.518 296.324 208.518 295.844C208.518 295.364 208.418 294.936 208.218 294.56C208.018 294.184 207.738 293.896 207.378 293.696C207.026 293.488 206.626 293.384 206.178 293.384C205.73 293.384 205.326 293.488 204.966 293.696C204.614 293.896 204.334 294.184 204.126 294.56C203.926 294.936 203.826 295.364 203.826 295.844C203.826 296.324 203.926 296.752 204.126 297.128C204.334 297.504 204.614 297.796 204.966 298.004C205.326 298.204 205.73 298.304 206.178 298.304ZM214.338 292.64C215.13 292.64 215.758 292.872 216.222 293.336C216.694 293.792 216.93 294.46 216.93 295.34V299H216.078V295.424C216.078 294.768 215.914 294.268 215.586 293.924C215.258 293.58 214.79 293.408 214.182 293.408C213.502 293.408 212.962 293.612 212.562 294.02C212.17 294.42 211.974 294.976 211.974 295.688V299H211.122V292.688H211.938V293.852C212.17 293.468 212.49 293.172 212.898 292.964C213.314 292.748 213.794 292.64 214.338 292.64ZM221.451 292.64C222.275 292.64 222.907 292.848 223.347 293.264C223.787 293.672 224.007 294.28 224.007 295.088V299H223.191V298.016C222.999 298.344 222.715 298.6 222.339 298.784C221.971 298.968 221.531 299.06 221.019 299.06C220.315 299.06 219.755 298.892 219.339 298.556C218.923 298.22 218.715 297.776 218.715 297.224C218.715 296.688 218.907 296.256 219.291 295.928C219.683 295.6 220.303 295.436 221.151 295.436H223.155V295.052C223.155 294.508 223.003 294.096 222.699 293.816C222.395 293.528 221.951 293.384 221.367 293.384C220.967 293.384 220.583 293.452 220.215 293.588C219.847 293.716 219.531 293.896 219.267 294.128L218.883 293.492C219.203 293.22 219.587 293.012 220.035 292.868C220.483 292.716 220.955 292.64 221.451 292.64ZM221.151 298.388C221.631 298.388 222.043 298.28 222.387 298.064C222.731 297.84 222.987 297.52 223.155 297.104V296.072H221.175C220.095 296.072 219.555 296.448 219.555 297.2C219.555 297.568 219.695 297.86 219.975 298.076C220.255 298.284 220.647 298.388 221.151 298.388ZM226.321 290.096H227.173V299H226.321V290.096ZM229.543 292.688H230.395V299H229.543V292.688ZM229.975 291.308C229.799 291.308 229.651 291.248 229.531 291.128C229.411 291.008 229.351 290.864 229.351 290.696C229.351 290.536 229.411 290.396 229.531 290.276C229.651 290.156 229.799 290.096 229.975 290.096C230.151 290.096 230.299 290.156 230.419 290.276C230.539 290.388 230.599 290.524 230.599 290.684C230.599 290.86 230.539 291.008 230.419 291.128C230.299 291.248 230.151 291.308 229.975 291.308ZM237.218 298.292V299H232.082V298.436L236.054 293.408H232.154V292.688H237.146V293.252L233.174 298.292H237.218ZM241.103 292.64C241.927 292.64 242.559 292.848 242.999 293.264C243.439 293.672 243.659 294.28 243.659 295.088V299H242.843V298.016C242.651 298.344 242.367 298.6 241.991 298.784C241.623 298.968 241.183 299.06 240.671 299.06C239.967 299.06 239.407 298.892 238.991 298.556C238.575 298.22 238.367 297.776 238.367 297.224C238.367 296.688 238.559 296.256 238.943 295.928C239.335 295.6 239.955 295.436 240.803 295.436H242.807V295.052C242.807 294.508 242.655 294.096 242.351 293.816C242.047 293.528 241.603 293.384 241.019 293.384C240.619 293.384 240.235 293.452 239.867 293.588C239.499 293.716 239.183 293.896 238.919 294.128L238.535 293.492C238.855 293.22 239.239 293.012 239.687 292.868C240.135 292.716 240.607 292.64 241.103 292.64ZM240.803 298.388C241.283 298.388 241.695 298.28 242.039 298.064C242.383 297.84 242.639 297.52 242.807 297.104V296.072H240.827C239.747 296.072 239.207 296.448 239.207 297.2C239.207 297.568 239.347 297.86 239.627 298.076C239.907 298.284 240.299 298.388 240.803 298.388ZM251.757 290.096V299H250.941V297.752C250.685 298.176 250.345 298.5 249.921 298.724C249.505 298.948 249.033 299.06 248.505 299.06C247.913 299.06 247.377 298.924 246.897 298.652C246.417 298.38 246.041 298 245.769 297.512C245.497 297.024 245.361 296.468 245.361 295.844C245.361 295.22 245.497 294.664 245.769 294.176C246.041 293.688 246.417 293.312 246.897 293.048C247.377 292.776 247.913 292.64 248.505 292.64C249.017 292.64 249.477 292.748 249.885 292.964C250.301 293.172 250.641 293.48 250.905 293.888V290.096H251.757ZM248.577 298.304C249.017 298.304 249.413 298.204 249.765 298.004C250.125 297.796 250.405 297.504 250.605 297.128C250.813 296.752 250.917 296.324 250.917 295.844C250.917 295.364 250.813 294.936 250.605 294.56C250.405 294.184 250.125 293.896 249.765 293.696C249.413 293.488 249.017 293.384 248.577 293.384C248.129 293.384 247.725 293.488 247.365 293.696C247.013 293.896 246.733 294.184 246.525 294.56C246.325 294.936 246.225 295.364 246.225 295.844C246.225 296.324 246.325 296.752 246.525 297.128C246.733 297.504 247.013 297.796 247.365 298.004C247.725 298.204 248.129 298.304 248.577 298.304ZM256.709 299.06C256.101 299.06 255.553 298.924 255.065 298.652C254.577 298.372 254.193 297.988 253.913 297.5C253.633 297.012 253.493 296.46 253.493 295.844C253.493 295.228 253.633 294.676 253.913 294.188C254.193 293.7 254.577 293.32 255.065 293.048C255.553 292.776 256.101 292.64 256.709 292.64C257.317 292.64 257.865 292.776 258.353 293.048C258.841 293.32 259.221 293.7 259.493 294.188C259.773 294.676 259.913 295.228 259.913 295.844C259.913 296.46 259.773 297.012 259.493 297.5C259.221 297.988 258.841 298.372 258.353 298.652C257.865 298.924 257.317 299.06 256.709 299.06ZM256.709 298.304C257.157 298.304 257.557 298.204 257.909 298.004C258.269 297.796 258.549 297.504 258.749 297.128C258.949 296.752 259.049 296.324 259.049 295.844C259.049 295.364 258.949 294.936 258.749 294.56C258.549 294.184 258.269 293.896 257.909 293.696C257.557 293.488 257.157 293.384 256.709 293.384C256.261 293.384 255.857 293.488 255.497 293.696C255.145 293.896 254.865 294.184 254.657 294.56C254.457 294.936 254.357 295.364 254.357 295.844C254.357 296.324 254.457 296.752 254.657 297.128C254.865 297.504 255.145 297.796 255.497 298.004C255.857 298.204 256.261 298.304 256.709 298.304ZM133.601 307.64C134.425 307.64 135.057 307.848 135.497 308.264C135.937 308.672 136.157 309.28 136.157 310.088V314H135.341V313.016C135.149 313.344 134.865 313.6 134.489 313.784C134.121 313.968 133.681 314.06 133.169 314.06C132.465 314.06 131.905 313.892 131.489 313.556C131.073 313.22 130.865 312.776 130.865 312.224C130.865 311.688 131.057 311.256 131.441 310.928C131.833 310.6 132.453 310.436 133.301 310.436H135.305V310.052C135.305 309.508 135.153 309.096 134.849 308.816C134.545 308.528 134.101 308.384 133.517 308.384C133.117 308.384 132.733 308.452 132.365 308.588C131.997 308.716 131.681 308.896 131.417 309.128L131.033 308.492C131.353 308.22 131.737 308.012 132.185 307.868C132.633 307.716 133.105 307.64 133.601 307.64ZM133.301 313.388C133.781 313.388 134.193 313.28 134.537 313.064C134.881 312.84 135.137 312.52 135.305 312.104V311.072H133.325C132.245 311.072 131.705 311.448 131.705 312.2C131.705 312.568 131.845 312.86 132.125 313.076C132.405 313.284 132.797 313.388 133.301 313.388ZM147.3 307.688V314H146.484V312.848C146.26 313.232 145.952 313.532 145.56 313.748C145.168 313.956 144.72 314.06 144.216 314.06C143.392 314.06 142.74 313.832 142.26 313.376C141.788 312.912 141.552 312.236 141.552 311.348V307.688H142.404V311.264C142.404 311.928 142.568 312.432 142.896 312.776C143.224 313.12 143.692 313.292 144.3 313.292C144.964 313.292 145.488 313.092 145.872 312.692C146.256 312.284 146.448 311.72 146.448 311V307.688H147.3ZM152.902 307.64C153.694 307.64 154.322 307.872 154.786 308.336C155.258 308.792 155.494 309.46 155.494 310.34V314H154.642V310.424C154.642 309.768 154.478 309.268 154.15 308.924C153.822 308.58 153.354 308.408 152.746 308.408C152.066 308.408 151.526 308.612 151.126 309.02C150.734 309.42 150.538 309.976 150.538 310.688V314H149.686V307.688H150.502V308.852C150.734 308.468 151.054 308.172 151.462 307.964C151.878 307.748 152.358 307.64 152.902 307.64ZM164.2 307.64C164.792 307.64 165.328 307.776 165.808 308.048C166.288 308.312 166.664 308.688 166.936 309.176C167.208 309.664 167.344 310.22 167.344 310.844C167.344 311.476 167.208 312.036 166.936 312.524C166.664 313.012 166.288 313.392 165.808 313.664C165.336 313.928 164.8 314.06 164.2 314.06C163.688 314.06 163.224 313.956 162.808 313.748C162.4 313.532 162.064 313.22 161.8 312.812V316.328H160.948V307.688H161.764V308.936C162.02 308.52 162.356 308.2 162.772 307.976C163.196 307.752 163.672 307.64 164.2 307.64ZM164.14 313.304C164.58 313.304 164.98 313.204 165.34 313.004C165.7 312.796 165.98 312.504 166.18 312.128C166.388 311.752 166.492 311.324 166.492 310.844C166.492 310.364 166.388 309.94 166.18 309.572C165.98 309.196 165.7 308.904 165.34 308.696C164.98 308.488 164.58 308.384 164.14 308.384C163.692 308.384 163.288 308.488 162.928 308.696C162.576 308.904 162.296 309.196 162.088 309.572C161.888 309.94 161.788 310.364 161.788 310.844C161.788 311.324 161.888 311.752 162.088 312.128C162.296 312.504 162.576 312.796 162.928 313.004C163.288 313.204 163.692 313.304 164.14 313.304ZM169.897 308.924C170.097 308.5 170.393 308.18 170.785 307.964C171.185 307.748 171.677 307.64 172.261 307.64V308.468L172.057 308.456C171.393 308.456 170.873 308.66 170.497 309.068C170.121 309.476 169.933 310.048 169.933 310.784V314H169.081V307.688H169.897V308.924ZM179.241 311.108H173.961C174.009 311.764 174.261 312.296 174.717 312.704C175.173 313.104 175.749 313.304 176.445 313.304C176.837 313.304 177.197 313.236 177.525 313.1C177.853 312.956 178.137 312.748 178.377 312.476L178.857 313.028C178.577 313.364 178.225 313.62 177.801 313.796C177.385 313.972 176.925 314.06 176.421 314.06C175.773 314.06 175.197 313.924 174.693 313.652C174.197 313.372 173.809 312.988 173.529 312.5C173.249 312.012 173.109 311.46 173.109 310.844C173.109 310.228 173.241 309.676 173.505 309.188C173.777 308.7 174.145 308.32 174.609 308.048C175.081 307.776 175.609 307.64 176.193 307.64C176.777 307.64 177.301 307.776 177.765 308.048C178.229 308.32 178.593 308.7 178.857 309.188C179.121 309.668 179.253 310.22 179.253 310.844L179.241 311.108ZM176.193 308.372C175.585 308.372 175.073 308.568 174.657 308.96C174.249 309.344 174.017 309.848 173.961 310.472H178.437C178.381 309.848 178.145 309.344 177.729 308.96C177.321 308.568 176.809 308.372 176.193 308.372ZM183.603 314.06C182.979 314.06 182.419 313.924 181.923 313.652C181.435 313.38 181.051 313 180.771 312.512C180.491 312.016 180.351 311.46 180.351 310.844C180.351 310.228 180.491 309.676 180.771 309.188C181.051 308.7 181.435 308.32 181.923 308.048C182.419 307.776 182.979 307.64 183.603 307.64C184.147 307.64 184.631 307.748 185.055 307.964C185.487 308.172 185.827 308.48 186.075 308.888L185.439 309.32C185.231 309.008 184.967 308.776 184.647 308.624C184.327 308.464 183.979 308.384 183.603 308.384C183.147 308.384 182.735 308.488 182.367 308.696C182.007 308.896 181.723 309.184 181.515 309.56C181.315 309.936 181.215 310.364 181.215 310.844C181.215 311.332 181.315 311.764 181.515 312.14C181.723 312.508 182.007 312.796 182.367 313.004C182.735 313.204 183.147 313.304 183.603 313.304C183.979 313.304 184.327 313.228 184.647 313.076C184.967 312.924 185.231 312.692 185.439 312.38L186.075 312.812C185.827 313.22 185.487 313.532 185.055 313.748C184.623 313.956 184.139 314.06 183.603 314.06ZM187.749 307.688H188.601V314H187.749V307.688ZM188.181 306.308C188.005 306.308 187.857 306.248 187.737 306.128C187.617 306.008 187.557 305.864 187.557 305.696C187.557 305.536 187.617 305.396 187.737 305.276C187.857 305.156 188.005 305.096 188.181 305.096C188.357 305.096 188.505 305.156 188.625 305.276C188.745 305.388 188.805 305.524 188.805 305.684C188.805 305.86 188.745 306.008 188.625 306.128C188.505 306.248 188.357 306.308 188.181 306.308ZM193.551 314.06C192.943 314.06 192.395 313.924 191.907 313.652C191.419 313.372 191.035 312.988 190.755 312.5C190.475 312.012 190.335 311.46 190.335 310.844C190.335 310.228 190.475 309.676 190.755 309.188C191.035 308.7 191.419 308.32 191.907 308.048C192.395 307.776 192.943 307.64 193.551 307.64C194.159 307.64 194.707 307.776 195.195 308.048C195.683 308.32 196.063 308.7 196.335 309.188C196.615 309.676 196.755 310.228 196.755 310.844C196.755 311.46 196.615 312.012 196.335 312.5C196.063 312.988 195.683 313.372 195.195 313.652C194.707 313.924 194.159 314.06 193.551 314.06ZM193.551 313.304C193.999 313.304 194.399 313.204 194.751 313.004C195.111 312.796 195.391 312.504 195.591 312.128C195.791 311.752 195.891 311.324 195.891 310.844C195.891 310.364 195.791 309.936 195.591 309.56C195.391 309.184 195.111 308.896 194.751 308.696C194.399 308.488 193.999 308.384 193.551 308.384C193.103 308.384 192.699 308.488 192.339 308.696C191.987 308.896 191.707 309.184 191.499 309.56C191.299 309.936 191.199 310.364 191.199 310.844C191.199 311.324 191.299 311.752 191.499 312.128C191.707 312.504 191.987 312.796 192.339 313.004C192.699 313.204 193.103 313.304 193.551 313.304ZM203.843 307.64C204.667 307.64 205.299 307.848 205.739 308.264C206.179 308.672 206.399 309.28 206.399 310.088V314H205.583V313.016C205.391 313.344 205.107 313.6 204.731 313.784C204.363 313.968 203.923 314.06 203.411 314.06C202.707 314.06 202.147 313.892 201.731 313.556C201.315 313.22 201.107 312.776 201.107 312.224C201.107 311.688 201.299 311.256 201.683 310.928C202.075 310.6 202.695 310.436 203.543 310.436H205.547V310.052C205.547 309.508 205.395 309.096 205.091 308.816C204.787 308.528 204.343 308.384 203.759 308.384C203.359 308.384 202.975 308.452 202.607 308.588C202.239 308.716 201.923 308.896 201.659 309.128L201.275 308.492C201.595 308.22 201.979 308.012 202.427 307.868C202.875 307.716 203.347 307.64 203.843 307.64ZM203.543 313.388C204.023 313.388 204.435 313.28 204.779 313.064C205.123 312.84 205.379 312.52 205.547 312.104V311.072H203.567C202.487 311.072 201.947 311.448 201.947 312.2C201.947 312.568 202.087 312.86 202.367 313.076C202.647 313.284 203.039 313.388 203.543 313.388ZM211.353 314.06C210.729 314.06 210.169 313.924 209.673 313.652C209.185 313.38 208.801 313 208.521 312.512C208.241 312.016 208.101 311.46 208.101 310.844C208.101 310.228 208.241 309.676 208.521 309.188C208.801 308.7 209.185 308.32 209.673 308.048C210.169 307.776 210.729 307.64 211.353 307.64C211.897 307.64 212.381 307.748 212.805 307.964C213.237 308.172 213.577 308.48 213.825 308.888L213.189 309.32C212.981 309.008 212.717 308.776 212.397 308.624C212.077 308.464 211.729 308.384 211.353 308.384C210.897 308.384 210.485 308.488 210.117 308.696C209.757 308.896 209.473 309.184 209.265 309.56C209.065 309.936 208.965 310.364 208.965 310.844C208.965 311.332 209.065 311.764 209.265 312.14C209.473 312.508 209.757 312.796 210.117 313.004C210.485 313.204 210.897 313.304 211.353 313.304C211.729 313.304 212.077 313.228 212.397 313.076C212.717 312.924 212.981 312.692 213.189 312.38L213.825 312.812C213.577 313.22 213.237 313.532 212.805 313.748C212.373 313.956 211.889 314.06 211.353 314.06ZM218.009 314.06C217.385 314.06 216.825 313.924 216.329 313.652C215.841 313.38 215.457 313 215.177 312.512C214.897 312.016 214.757 311.46 214.757 310.844C214.757 310.228 214.897 309.676 215.177 309.188C215.457 308.7 215.841 308.32 216.329 308.048C216.825 307.776 217.385 307.64 218.009 307.64C218.553 307.64 219.037 307.748 219.461 307.964C219.893 308.172 220.233 308.48 220.481 308.888L219.845 309.32C219.637 309.008 219.373 308.776 219.053 308.624C218.733 308.464 218.385 308.384 218.009 308.384C217.553 308.384 217.141 308.488 216.773 308.696C216.413 308.896 216.129 309.184 215.921 309.56C215.721 309.936 215.621 310.364 215.621 310.844C215.621 311.332 215.721 311.764 215.921 312.14C216.129 312.508 216.413 312.796 216.773 313.004C217.141 313.204 217.553 313.304 218.009 313.304C218.385 313.304 218.733 313.228 219.053 313.076C219.373 312.924 219.637 312.692 219.845 312.38L220.481 312.812C220.233 313.22 219.893 313.532 219.461 313.748C219.029 313.956 218.545 314.06 218.009 314.06ZM227.545 311.108H222.265C222.313 311.764 222.565 312.296 223.021 312.704C223.477 313.104 224.053 313.304 224.749 313.304C225.141 313.304 225.501 313.236 225.829 313.1C226.157 312.956 226.441 312.748 226.681 312.476L227.161 313.028C226.881 313.364 226.529 313.62 226.105 313.796C225.689 313.972 225.229 314.06 224.725 314.06C224.077 314.06 223.501 313.924 222.997 313.652C222.501 313.372 222.113 312.988 221.833 312.5C221.553 312.012 221.413 311.46 221.413 310.844C221.413 310.228 221.545 309.676 221.809 309.188C222.081 308.7 222.449 308.32 222.913 308.048C223.385 307.776 223.913 307.64 224.497 307.64C225.081 307.64 225.605 307.776 226.069 308.048C226.533 308.32 226.897 308.7 227.161 309.188C227.425 309.668 227.557 310.22 227.557 310.844L227.545 311.108ZM224.497 308.372C223.889 308.372 223.377 308.568 222.961 308.96C222.553 309.344 222.321 309.848 222.265 310.472H226.741C226.685 309.848 226.449 309.344 226.033 308.96C225.625 308.568 225.113 308.372 224.497 308.372ZM230.984 314.06C230.472 314.06 229.98 313.988 229.508 313.844C229.044 313.692 228.68 313.504 228.416 313.28L228.8 312.608C229.064 312.816 229.396 312.988 229.796 313.124C230.196 313.252 230.612 313.316 231.044 313.316C231.62 313.316 232.044 313.228 232.316 313.052C232.596 312.868 232.736 312.612 232.736 312.284C232.736 312.052 232.66 311.872 232.508 311.744C232.356 311.608 232.164 311.508 231.932 311.444C231.7 311.372 231.392 311.304 231.008 311.24C230.496 311.144 230.084 311.048 229.772 310.952C229.46 310.848 229.192 310.676 228.968 310.436C228.752 310.196 228.644 309.864 228.644 309.44C228.644 308.912 228.864 308.48 229.304 308.144C229.744 307.808 230.356 307.64 231.14 307.64C231.548 307.64 231.956 307.696 232.364 307.808C232.772 307.912 233.108 308.052 233.372 308.228L233 308.912C232.48 308.552 231.86 308.372 231.14 308.372C230.596 308.372 230.184 308.468 229.904 308.66C229.632 308.852 229.496 309.104 229.496 309.416C229.496 309.656 229.572 309.848 229.724 309.992C229.884 310.136 230.08 310.244 230.312 310.316C230.544 310.38 230.864 310.448 231.272 310.52C231.776 310.616 232.18 310.712 232.484 310.808C232.788 310.904 233.048 311.068 233.264 311.3C233.48 311.532 233.588 311.852 233.588 312.26C233.588 312.812 233.356 313.252 232.892 313.58C232.436 313.9 231.8 314.06 230.984 314.06ZM235.163 307.688H236.015V314H235.163V307.688ZM235.595 306.308C235.419 306.308 235.271 306.248 235.151 306.128C235.031 306.008 234.971 305.864 234.971 305.696C234.971 305.536 235.031 305.396 235.151 305.276C235.271 305.156 235.419 305.096 235.595 305.096C235.771 305.096 235.919 305.156 236.039 305.276C236.159 305.388 236.219 305.524 236.219 305.684C236.219 305.86 236.159 306.008 236.039 306.128C235.919 306.248 235.771 306.308 235.595 306.308ZM241.637 307.64C242.229 307.64 242.765 307.776 243.245 308.048C243.725 308.312 244.101 308.688 244.373 309.176C244.645 309.664 244.781 310.22 244.781 310.844C244.781 311.468 244.645 312.024 244.373 312.512C244.101 313 243.725 313.38 243.245 313.652C242.765 313.924 242.229 314.06 241.637 314.06C241.109 314.06 240.633 313.948 240.209 313.724C239.793 313.5 239.457 313.176 239.201 312.752V314H238.385V305.096H239.237V308.888C239.501 308.48 239.837 308.172 240.245 307.964C240.661 307.748 241.125 307.64 241.637 307.64ZM241.577 313.304C242.017 313.304 242.417 313.204 242.777 313.004C243.137 312.796 243.417 312.504 243.617 312.128C243.825 311.752 243.929 311.324 243.929 310.844C243.929 310.364 243.825 309.936 243.617 309.56C243.417 309.184 243.137 308.896 242.777 308.696C242.417 308.488 242.017 308.384 241.577 308.384C241.129 308.384 240.725 308.488 240.365 308.696C240.013 308.896 239.733 309.184 239.525 309.56C239.325 309.936 239.225 310.364 239.225 310.844C239.225 311.324 239.325 311.752 239.525 312.128C239.733 312.504 240.013 312.796 240.365 313.004C240.725 313.204 241.129 313.304 241.577 313.304ZM246.518 305.096H247.37V314H246.518V305.096ZM255.237 311.108H249.957C250.005 311.764 250.257 312.296 250.713 312.704C251.169 313.104 251.745 313.304 252.441 313.304C252.833 313.304 253.193 313.236 253.521 313.1C253.849 312.956 254.133 312.748 254.373 312.476L254.853 313.028C254.573 313.364 254.221 313.62 253.797 313.796C253.381 313.972 252.921 314.06 252.417 314.06C251.769 314.06 251.193 313.924 250.689 313.652C250.193 313.372 249.805 312.988 249.525 312.5C249.245 312.012 249.105 311.46 249.105 310.844C249.105 310.228 249.237 309.676 249.501 309.188C249.773 308.7 250.141 308.32 250.605 308.048C251.077 307.776 251.605 307.64 252.189 307.64C252.773 307.64 253.297 307.776 253.761 308.048C254.225 308.32 254.589 308.7 254.853 309.188C255.117 309.668 255.249 310.22 255.249 310.844L255.237 311.108ZM252.189 308.372C251.581 308.372 251.069 308.568 250.653 308.96C250.245 309.344 250.013 309.848 249.957 310.472H254.433C254.377 309.848 254.141 309.344 253.725 308.96C253.317 308.568 252.805 308.372 252.189 308.372Z" fill="white"/>
<path d="M177.256 271.8L173.592 283H170.808L168.344 275.416L165.8 283H163.032L159.352 271.8H162.04L164.568 279.672L167.208 271.8H169.608L172.168 279.736L174.776 271.8H177.256ZM181.358 274.264C182.692 274.264 183.716 274.584 184.43 275.224C185.145 275.853 185.502 276.808 185.502 278.088V283H183.166V281.928C182.697 282.728 181.822 283.128 180.542 283.128C179.881 283.128 179.305 283.016 178.814 282.792C178.334 282.568 177.966 282.259 177.71 281.864C177.454 281.469 177.326 281.021 177.326 280.52C177.326 279.72 177.625 279.091 178.222 278.632C178.83 278.173 179.764 277.944 181.022 277.944H183.006C183.006 277.4 182.841 276.984 182.51 276.696C182.18 276.397 181.684 276.248 181.022 276.248C180.564 276.248 180.11 276.323 179.662 276.472C179.225 276.611 178.852 276.803 178.542 277.048L177.646 275.304C178.116 274.973 178.676 274.717 179.326 274.536C179.988 274.355 180.665 274.264 181.358 274.264ZM181.166 281.448C181.593 281.448 181.972 281.352 182.302 281.16C182.633 280.957 182.868 280.664 183.006 280.28V279.4H181.294C180.27 279.4 179.758 279.736 179.758 280.408C179.758 280.728 179.881 280.984 180.126 281.176C180.382 281.357 180.729 281.448 181.166 281.448ZM187.761 271.128H190.257V283H187.761V271.128ZM196.27 279.624L195.07 280.808V283H192.574V271.128H195.07V277.848L198.718 274.392H201.694L198.11 278.04L202.014 283H198.99L196.27 279.624ZM211.193 278.728C211.193 278.76 211.177 278.984 211.145 279.4H204.633C204.751 279.933 205.028 280.355 205.465 280.664C205.903 280.973 206.447 281.128 207.097 281.128C207.545 281.128 207.94 281.064 208.281 280.936C208.633 280.797 208.959 280.584 209.257 280.296L210.585 281.736C209.775 282.664 208.591 283.128 207.033 283.128C206.063 283.128 205.204 282.941 204.457 282.568C203.711 282.184 203.135 281.656 202.729 280.984C202.324 280.312 202.121 279.549 202.121 278.696C202.121 277.853 202.319 277.096 202.713 276.424C203.119 275.741 203.668 275.213 204.361 274.84C205.065 274.456 205.849 274.264 206.713 274.264C207.556 274.264 208.319 274.445 209.001 274.808C209.684 275.171 210.217 275.693 210.601 276.376C210.996 277.048 211.193 277.832 211.193 278.728ZM206.729 276.152C206.164 276.152 205.689 276.312 205.305 276.632C204.921 276.952 204.687 277.389 204.601 277.944H208.841C208.756 277.4 208.521 276.968 208.137 276.648C207.753 276.317 207.284 276.152 206.729 276.152ZM215.239 275.528C215.538 275.112 215.938 274.797 216.439 274.584C216.951 274.371 217.538 274.264 218.199 274.264V276.568C217.922 276.547 217.735 276.536 217.639 276.536C216.924 276.536 216.364 276.739 215.959 277.144C215.554 277.539 215.351 278.136 215.351 278.936V283H212.855V274.392H215.239V275.528ZM222.611 283.128C221.896 283.128 221.197 283.043 220.515 282.872C219.832 282.691 219.288 282.467 218.883 282.2L219.715 280.408C220.099 280.653 220.563 280.856 221.107 281.016C221.651 281.165 222.184 281.24 222.707 281.24C223.763 281.24 224.291 280.979 224.291 280.456C224.291 280.211 224.147 280.035 223.859 279.928C223.571 279.821 223.128 279.731 222.531 279.656C221.827 279.549 221.245 279.427 220.787 279.288C220.328 279.149 219.928 278.904 219.587 278.552C219.256 278.2 219.09 277.699 219.09 277.048C219.09 276.504 219.245 276.024 219.555 275.608C219.875 275.181 220.333 274.851 220.931 274.616C221.539 274.381 222.253 274.264 223.075 274.264C223.683 274.264 224.285 274.333 224.883 274.472C225.491 274.6 225.992 274.781 226.387 275.016L225.555 276.792C224.797 276.365 223.971 276.152 223.075 276.152C222.541 276.152 222.141 276.227 221.875 276.376C221.608 276.525 221.475 276.717 221.475 276.952C221.475 277.219 221.619 277.405 221.907 277.512C222.195 277.619 222.653 277.72 223.283 277.816C223.987 277.933 224.563 278.061 225.011 278.2C225.459 278.328 225.848 278.568 226.179 278.92C226.509 279.272 226.675 279.763 226.675 280.392C226.675 280.925 226.515 281.4 226.195 281.816C225.875 282.232 225.405 282.557 224.787 282.792C224.179 283.016 223.453 283.128 222.611 283.128Z" fill="white"/>
<path d="M229.5 213V213C230.069 212.431 230.976 212.381 231.604 212.883L232.785 213.828C232.928 213.943 233.08 214.045 233.24 214.133L235 215.111M229.5 213L226 210M229.5 213L229.75 214.5M226 210L220.5 207.5M226 210L225.5 212M220.5 207.5H218.059C217.716 207.5 217.403 207.306 217.25 207V207M220.5 207.5V210.5M212 203.5L209.5 201L208 199.5M212 203.5L210.5 204.5M212 203.5L214 204M208 199.5L202.5 198.5M208 199.5L207.64 201.301C207.547 201.763 207.366 202.201 207.105 202.593L206.801 203.049C206.605 203.343 206.5 203.689 206.5 204.042V204.042C206.5 204.641 206.799 205.199 207.297 205.531L207.549 205.699C207.843 205.895 208.189 206 208.542 206V206C209.141 206 209.699 205.701 210.031 205.203L210.5 204.5M202.5 198.5L199.5 197.5M202.5 198.5V201M199.5 197.5L195.5 194.5M199.5 197.5L198.5 199M195.5 194.5L193.304 192.931C192.456 192.326 191.44 192 190.398 192H190M195.5 194.5L195 196.5M190 192H189M190 192L191.756 195.513C191.917 195.833 192 196.186 192 196.545V197.086C192 197.351 192.105 197.605 192.293 197.793V197.793C192.683 198.183 193.317 198.183 193.707 197.793L194 197.5L195 196.5M189 192L188.043 189.128C187.691 188.073 186.998 187.165 186.073 186.548L185.066 185.877C184.697 185.631 184.263 185.5 183.82 185.5H181.846C181.201 185.5 180.761 184.849 181 184.25V184.25M189 192L187.286 194.057C186.799 194.641 186.039 194.923 185.289 194.798V194.798C184.257 194.626 183.5 193.733 183.5 192.686V191.707C183.5 191.254 183.32 190.82 183 190.5V190.5C182.68 190.18 182.246 190 181.793 190H180.5H177.375C176.339 190 175.5 189.161 175.5 188.125V188.125C175.5 187.719 175.63 187.324 175.884 187.008C176.511 186.229 177.538 185.052 178.5 184.25C179.7 183.25 180.667 183.833 181 184.25M181 184.25V184.25C181.31 183.474 181.194 182.592 180.692 181.923L177.213 177.284C177.071 177.095 176.916 176.916 176.749 176.749L175.215 175.215C173.392 173.392 170.482 173.254 168.495 174.896L161.606 180.587C160.883 181.184 160.343 181.971 160.047 182.86L158.757 186.73C158.587 187.24 158.5 187.774 158.5 188.311V191.608C158.5 191.859 158.6 192.1 158.777 192.277V192.277C159.167 192.667 159.143 193.306 158.724 193.665L156.228 195.805C156.076 195.935 155.915 196.053 155.746 196.159L152.446 198.221C152.15 198.406 151.834 198.56 151.505 198.68L146.933 200.343C146.645 200.447 146.348 200.525 146.046 200.576L140.908 201.432C140.637 201.477 140.362 201.5 140.086 201.5H136.061C135.361 201.5 134.67 201.353 134.03 201.069L131.057 199.748C130.687 199.583 130.338 199.374 130.018 199.125L126.529 196.411C126.178 196.138 125.865 195.82 125.598 195.464L123.547 192.729C123.185 192.247 122.74 191.834 122.231 191.511L119.459 189.746C118.225 188.962 116.695 188.802 115.326 189.315V189.315C114.158 189.753 113.215 190.642 112.708 191.782L111.931 193.53C111.647 194.17 111.5 194.861 111.5 195.561V196.97C111.5 197.322 111.463 197.674 111.389 198.018L110 204.5L108.629 215.01C108.548 215.634 108.761 216.261 109.206 216.706V216.706C109.7 217.2 109.905 217.914 109.747 218.595L108.628 223.445C108.543 223.814 108.5 224.191 108.5 224.569V231.5V233.82C108.5 234.596 108.319 235.361 107.972 236.056L107.528 236.944C107.181 237.639 107 238.404 107 239.18V239.5L106 247V251.384C106 251.793 106.05 252.201 106.149 252.597L106.664 254.656C106.884 255.536 107.338 256.338 107.979 256.979L109.084 258.084C109.685 258.685 110.429 259.123 111.246 259.356L112.872 259.821C113.289 259.94 113.72 260.004 114.153 260.012L121.5 260.148L124.5 260.204L127.5 260.259L130.5 260.315L133.5 260.37L136.5 260.426L137 260.435L139.5 260.481L140.5 260.5H142.5H143H145.5H149H152H155H158.5H161.5H165H168H171.5H174.5H177.5H180.5H183.5H187H190H193H196.5H199.5H202.5H206H208.5H211.5H215H218.5H221.5H224.5H227.5H230.5H234H237H240.5H243H246H249H252.5H255H255.5H258.5H260.75H261.244H262.549C262.849 260.5 263.148 260.473 263.444 260.419L279.059 257.58C279.352 257.527 279.641 257.447 279.92 257.343L282.073 256.535C283.003 256.186 283.808 255.568 284.386 254.76L285.408 253.328C285.799 252.782 286.075 252.162 286.221 251.507L286.789 248.948C286.928 248.322 286.946 247.675 286.84 247.042L286.036 242.217C286.012 242.073 286 241.926 286 241.78V241.78C286 240.971 285.632 240.206 285.001 239.701L284.386 239.208C283.805 238.744 283.355 238.137 283.079 237.447L280.16 230.151C279.733 229.083 278.951 228.195 277.946 227.637L275.656 226.365C275.221 226.123 274.752 225.947 274.266 225.844L242.734 219.156C242.248 219.053 241.779 218.877 241.344 218.635L235 215.111M195 196.5L198.5 199M198.5 199L198.071 200.717C198.024 200.905 198 201.098 198 201.292V201.919C198 202.565 198.413 203.138 199.026 203.342V203.342C199.334 203.445 199.666 203.445 199.974 203.342L200.274 203.242C200.747 203.084 201.16 202.787 201.459 202.388L202.5 201M202.5 201L206.5 203M210.5 204.5L213 206M214 204V204C215.269 204.317 216.337 205.174 216.922 206.344L217.25 207M214 204L213.5 207L213.176 208.296C213.061 208.756 213.08 209.239 213.23 209.689L213.306 209.919C213.432 210.296 213.679 210.62 214.01 210.84V210.84C214.609 211.24 215.391 211.24 215.99 210.84L216.154 210.731C216.382 210.578 216.578 210.382 216.731 210.154L216.85 209.976C217.269 209.346 217.448 208.587 217.355 207.837L217.25 207M220.5 210.5L221.024 211.809C221.321 212.552 221.973 213.095 222.758 213.252V213.252C223.534 213.407 224.336 213.164 224.896 212.604L225.5 212M220.5 210.5L217.25 209M225.5 212L229.75 214.5M235 215.111V215.111C235 215.68 234.774 216.226 234.371 216.629L233.846 217.154C233.617 217.383 233.352 217.574 233.063 217.719L232.339 218.081C231.82 218.34 231.202 218.301 230.72 217.98V217.98C230.27 217.68 230 217.175 230 216.635V216.201C230 216.067 229.989 215.934 229.967 215.802L229.75 214.5" stroke="white"/>
<path d="M107 237.5L116 238.5L127 239L144.5 240L162.5 240.5L177.5 241.5L191 243.5L205 245L218 246H230H246L258.5 245L273 244L282.572 242.564C282.857 242.522 283.138 242.454 283.411 242.363L286 241.5" stroke="white"/>
<path d="M235.4 276.658L306.5 276.5M82 277L153.1 276.842" stroke="white"/>
</g>
<defs>
<filter id="filter0_f_9_29" x="-1083" y="-642" width="2141" height="1604" filterUnits="userSpaceOnUse" color-interpolation-filters="sRGB">
<feFlood flood-opacity="0" result="BackgroundImageFix"/>
<feBlend mode="normal" in="SourceGraphic" in2="BackgroundImageFix" result="shape"/>
<feGaussianBlur stdDeviation="161" result="effect1_foregroundBlur_9_29"/>
</filter>
<clipPath id="clip0_9_29">
<rect width="386" height="487" fill="white"/>
</clipPath>
<clipPath id="clip1_9_29">
<rect width="900" height="600" fill="white" transform="translate(-407 -107)"/>
</clipPath>
</defs>
</svg>
